/* XPM */
static char *_dbf5ec911cf4341cc1e62d45092f476N8X1MP0qLRKFZdeP[] = {
/* columns rows colors chars-per-pixel */
"50 50 227 2 ",
"   c #020102",
".  c #0C0201",
"X  c #060A06",
"o  c #0E0807",
"O  c #02030A",
"+  c #0A0709",
"@  c #060A0A",
"#  c #0A0A0A",
"$  c #120203",
"%  c #12060D",
"&  c #140809",
"*  c #040110",
"=  c #131313",
"-  c #1B1719",
";  c #1C1C1C",
":  c #271A16",
">  c #221E1B",
",  c #27211D",
"<  c #312218",
"1  c #1B1B22",
"2  c #232324",
"3  c #282726",
"4  c #2F2F2F",
"5  c #393229",
"6  c #343433",
"7  c #393F3A",
"8  c #3D3B3D",
"9  c #5E0C04",
"0  c #570F0C",
"q  c #5D0B0D",
"w  c #4D1C09",
"e  c #531707",
"r  c #5B1203",
"t  c #5D150D",
"y  c #58190C",
"u  c #550D12",
"i  c #491514",
"p  c #5A1511",
"a  c #561813",
"s  c #650602",
"d  c #6C0701",
"f  c #630A03",
"g  c #6B0902",
"h  c #65080B",
"j  c #6B0E09",
"k  c #700600",
"l  c #611302",
"z  c #6C1003",
"x  c #661009",
"c  c #711302",
"v  c #7C1E06",
"b  c #660610",
"n  c #6C131D",
"m  c #5F2B0C",
"M  c #4F2E1A",
"N  c #5D2813",
"B  c #54221A",
"V  c #572918",
"C  c #7D2E02",
"Z  c #7C2E0E",
"A  c #7C3301",
"S  c #65311D",
"D  c #7C3011",
"F  c #5F2423",
"G  c #5B2B29",
"H  c #493D2C",
"J  c #5E322F",
"K  c #483C36",
"L  c #413C3E",
"P  c #5B3334",
"I  c #583839",
"U  c #612425",
"Y  c #642D25",
"T  c #65292B",
"R  c #6B282B",
"E  c #603124",
"W  c #6D3827",
"Q  c #61302A",
"!  c #723729",
"~  c #693633",
"^  c #653E3C",
"/  c #683E3B",
"(  c #723332",
")  c #723A37",
"_  c #39413E",
"`  c #7E5B18",
"'  c #72412A",
"]  c #7E5A27",
"[  c #7E552B",
"{  c #7C5928",
"}  c #6B4130",
"|  c #63413B",
" . c #6B453D",
".. c #674C3C",
"X. c #6A4C3C",
"o. c #784934",
"O. c #71443D",
"+. c #775E37",
"@. c #7A5C33",
"#. c #3C3C41",
"$. c #423F42",
"%. c #733E44",
"&. c #454545",
"*. c #4A4545",
"=. c #454946",
"-. c #454648",
";. c #49464C",
":. c #464B4C",
">. c #4C4D4C",
",. c #57484A",
"<. c #424450",
"1. c #4B4E51",
"2. c #4E5859",
"3. c #545454",
"4. c #565859",
"5. c #5C5C5B",
"6. c #654543",
"7. c #6C4543",
"8. c #6B4B44",
"9. c #6C454A",
"0. c #65484A",
"q. c #6B4B4A",
"w. c #714341",
"e. c #744B49",
"r. c #6D534C",
"t. c #685949",
"y. c #7C5E44",
"u. c #73524C",
"i. c #77594B",
"p. c #7C5E4C",
"a. c #754F55",
"s. c #6D5553",
"d. c #695758",
"f. c #615E5D",
"g. c #6B5C5B",
"h. c #725253",
"j. c #7B5652",
"k. c #745C54",
"l. c #7D5B55",
"z. c #70535E",
"x. c #735C5A",
"c. c #7B5C5C",
"v. c #57685C",
"b. c #5C6D5C",
"n. c #6F6547",
"m. c #6C664B",
"M. c #726544",
"N. c #72634C",
"B. c #77644C",
"V. c #636451",
"C. c #6B6455",
"Z. c #686853",
"A. c #65645C",
"S. c #6B635D",
"D. c #63695D",
"F. c #6A685D",
"G. c #736154",
"H. c #72625B",
"J. c #79615B",
"K. c #5B5964",
"L. c #655B65",
"P. c #695F65",
"I. c #725E61",
"U. c #7D5B61",
"Y. c #725F6B",
"T. c #5E6564",
"R. c #5D6C64",
"E. c #5E656A",
"W. c #5D696A",
"Q. c #5D6777",
"!. c #656665",
"~. c #6B6464",
"^. c #626964",
"/. c #6D6962",
"(. c #64656A",
"). c #6B646A",
"_. c #63696A",
"`. c #696969",
"'. c #716362",
"]. c #716369",
"[. c #646474",
"{. c #6C6271",
"}. c #656A73",
"|. c #626379",
" X c #852B06",
".X c #862C06",
"XX c #882807",
"oX c #862A09",
"OX c #802E08",
"+X c #8A2A0A",
"@X c #863707",
"#X c #8B3C05",
"$X c #8C3308",
"%X c #93360A",
"&X c #913B09",
"*X c #862911",
"=X c #8B4204",
"-X c #974E03",
";X c #9B4E02",
":X c #9B4D05",
">X c #9A4D06",
",X c #92420C",
"<X c #964E0D",
"1X c #9B4D0A",
"2X c #8C5303",
"3X c #8F520B",
"4X c #955202",
"5X c #995001",
"6X c #93510A",
"7X c #8C4B1A",
"8X c #914F19",
"9X c #855716",
"0X c #8C5414",
"qX c #85571B",
"wX c #8D521B",
"eX c #915116",
"rX c #915119",
"tX c #A34A03",
"yX c #A14A05",
"uX c #A1460D",
"iX c #A14410",
"pX c #845723",
"aX c #895523",
"sX c #82572B",
"dX c #825A2D",
"fX c #855931",
"gX c #86574B",
/* pixels */
"B.y.B.(.~.j.k.m.m.m.m.n.m.n.c.k.y.gX^./.r.t.N.m.N.m.m.n.M.p.k.n.y.!._.!.g.G.n.n.n.n.m.m.n.n.n.M.G.}.",
"(.x.g.Q.).I.~.^.^._.^.R.^.!.{.(.A.'.Q.^.S.T.^.^.(._.^.D.D.~.[.D.G._._.E.(.`.(.!.!.^.^.^.^.!.T.D.).Q.",
"d.u.u.s.r.u.h.u.a.a.'.~.x.a.s.s.r.u.d.s.u.a.u.h.z.z.'.g.t.a.z.s.u.r.u.h.s.a.h.a.h.).P.s.h.a.u.u.u.g.",
"f f f 9 f 9 9 r h h c.Z.W q 9 9 9 f q 9 f 9 f f r G I.7.y 9 h f f f r f 9 9 9 9 0 S.H.a 9 f s s 9 q ",
"d d d d d d d f d g I.~.R h d d d d d d d f k d f F Y.9.x d k g d d d d d d d d f S.c.p f d s s d d ",
".X.X X.XoX X XOX+XoXH.~.! h oXoX X.X X X.XZ XX.XZ ' ).7.9 v XX+X X+X XoX.X.X X XD '.c.p g +X@XA  XoX",
":X:XyX:X:XyX5XyXyX1XN./.! f ,X<X:X;X:X:X;X:XtXtX<XfXD.7.r $XyXyX:X:X:X:X:X:X:X:X8XY.U.p c uX5X6X:X:X",
"5X5X5X5X5X5X5XtXyX:Xm.).( f ,X1X;X;X;X;X;X5XtXtX1XfX^.q.e #X5X5X5X5X5X;X5X;X5X;X6X~.c.t c iX5X4X;X;X",
"5X5X5X5X;X5X;X:XtX4XN.).( 9 ,X:X-X5X-X;X5X4X;X;X-XdX/.9.9 &XtX5X;X;X;X;X;X4X;X5X3XD.J.y j iX5X;X4X;X",
"tX;X;X;X;X;X;X4X4X2XM.~.W 9 ,X1X;X;X;X;X5X2X5X4X2XsXC.w.f %XtXtX;XtX;X;X;X;X;X;XeXF.J.w x 1X5X4X;X;X",
"rXeXeXeX8XeXeXqX9X9Xm.S.} N 7XrXeXeXwXrX0X` qX9XqX@.Z.8.y 7XrXwXwXwX8XrXeXeXeXeXaXD.C.M m wX0X3X0X0X",
"m.m.m.m.m.m.n.N.p.gX!._.x.s.g.m.m.m.m.m.B.N.p.N.y.k.(.(.f.G.N.m.m.m.m.m.m.m.m.m.m.F./.s.h.l.l.i.m.m.",
"!.!.^.^.^.!./.S.Y.c.E.W.~.}.^.^.b.D.^.(.).!.).^.S.S.(.Q.(.!.!.^.^.!.^.^.^.^.^.^.^.~.'.~.].~.~.F.!.!.",
"^ } 0.).g.| | | %.) 8 _ 7 $.8 8 8 8 8 8 #.#.#.7 8 8 8 #.8 8 8 8 8 8 8 8 #.8 #.8 L ^ / /  .| | ^ r.~.",
"j x B ].q.x x x x j & @ o # # # # + + + + + # X + + o + + + + + X # # # # # + + & x j x x x x x ) ].",
"k d B {.9.9 g f d s . O                                             O           . f d d d d d d ( {.",
"+X$XW !.8.9 v @X@X@XH 8 8 $.#                                             6 8 _ K @X+X$X$X+X$X.Xo.).",
"tX:X{ A.8.9  X4X5X5XM.!.~.).-                     O                     X 4.).^.H.6X5X:X;X5X5X4XfXF.",
"tXyX[ /.8.r +X:X-X-Xt.f.A.(.; #             # % # # # +           .   # % 3.!.5.t.6X;X;X;X;X5X5XsX~.",
";X:X[ S.8.l *X:X:X<X< 2 &.(.>.&.=         @ :.;.;.-.&.4               3 &.!.!.2 , 6X5X5X5X5X5X5XsXY.",
"-X4X{ C.X.r Z ;X3X6X.   6 (.!.!.;       X # _._.~.~.H.,.  . O     o   6 !.(.~.  $ :X;X;X:X;X:X5X] '.",
"pXqX@.D.r.V ' wXqXpX> 1 _ W.!.`.4 ;       # 1.1.~.k.w.I : #       - > &.!.!.!.2 > pXwXwXwXwXwX0X@.~.",
"k.y.p.E.P.u.h.l.p.B.4.K.5.^.^.L.4.>.X       = - S.7.p P ,.-       &.3.5.!.!.!.>.3.C.m.m.m.m.m.m.G.|.",
"(.C.S.}.`.H.].!.D.m.Q.[.A.^.!.~.!.4.+     o O # g.O.9 G I.3       >.!.`.).!.!.!.!.!.!.!.^.!.(.F./.Q.",
"9. .O.6.7.O. . ...} &.<.4.!.!.!.(.5.    .     @ S.u.Y P &.- .   X >.(.~.).).~.&.=.).'.0.7.O.w.O. .0.",
"f f f f f f f f d f . O 6 ^./.~.).5.          # L./.~.&.    $     >.).(.(.).~..   A.J.a f h d s f h ",
"k k k d k d d f d d & O 5 ^.R.~.~.5.# o #     X v.!.!.&.  O % % + >.!.^.(.!.~.# X !.c.p d g g f d d ",
" X X X X X XOXA C C H 6 >.^.!.~.T.v.6 6 6 4   + !.!.!.*.  3 6 6 6 4.~.^.R._.!.6 6 ~.c.p f XXC A .X X",
":X;X:X;X;X;X;X4X4X1XM.!.!.Y.).A.b.v.D.`.(.f.O X ^.~.~.&.  >._._.P.~.x.A.R.R.^.L.^.{.U.p c uX5X4X:X;X",
";X5X;X;X;X5X5X5X5X<Xt.A.f.L.).^.V.V.D.(.).f.# = !.!.!.>.# 1.`.R.b.c.j.x.b.v.5.b.5.(.'.t z iX1X4X;X5X",
";X5X;X5X5X5X5XyX4X<X: - ; 1 v.b.J R G.T.(.!.>.>.(.!.~.5.:.!.~.R.b.~ U 6.f.3 ; ; ; ^.J.t z iX:X5X5X5X",
";X;X;XtX;XtX;X5X4X6X$ +   O 2.R.U n l.D.`.!.!.!.!.!.^.!.^.~.'.^.A.F u ^ F.=       ^.G.w r 1X5X5X;X;X",
"8XrXwX8XwXwXrXwXqXqXX     # 2.v.G n gXs.g.!.(.!.^.`.!.^.^.~.~.C.k.Y a I f.= +     ^.C.M m wX0X9XrXrX",
"Z.Z.Z.Z.Z.Z.C.c.k.B.O * 6 ^.).`.g.j.u a J.!.!.^.~.(.!.^.).!.^.9.u O.l.Y.!.`.).#   !.'.S.x.c.c.k.C.V.",
"^.!.!.!.!.~.!./.F.N.@ * 6 T.!.).^.s.q e G.~.~.~.~.!.(.^.~.^.^.w.b ../.^.W.(.)..   ~.~.~.].P.~.A.(.^.",
"w.w.q.).d.7.O. ...' @ * , =.L.~.W.g.T G C.'.7.9.~.^.).g.0.C.^.e.R t.^.T.E.:.-.  . w.O.w.7.7... .h.~.",
"g f B ).q.9 f 9 f f . O     3.!.!.!.~.~.!.c.q p x.^.).7.i 7.H.~.Y.!.^.!.!.=     . f f f f f f f ( Y.",
"d d B ).9.9 d f f d . O     3.!.!.`.~.`.!.h.0 a x.(.(.9.i 6.H.S.!.!.!.~.!.#     . f d d d d d d ( {.",
"%X%X' ~.q.9 C @X#X#X.       3.!.^.!.~.!.^.'.8.7./.(.^.h.8.g.S.!.~.!.!.!.!.=     . @X&X%X$X&X$X$XfX~.",
"yXuX[ A.8.r  X:X-X:X$     O 3.!.~.(.^.^.).`.S.S.~.(.!.~.I.~.~.!.!.~.!.!.K.=     . <X:X:X5X5X5X5XfXF.",
"tX1X[ /.q.f +X:X-X:X$       3.!.(.~.!.!.).(.b.b.~.).!.!.(.^.(.^.!.~.!.^.v.=     . 6X;X5X5X;X5X5XdX).",
";X4X[ S.8.l *X1X<X<X$ .   O     >.!.^.).).K.X @ P.].~.-.O :._.^.!.!.).6         . 6X5X;X5X5X5X4XdX~.",
":X2X] C.X.e D 1X3X3X.     O   O >.!.).!.).L.  @ P.Y.~.&.O :.`.`.(.~.~.6         . :X:X:X:X:X;X-X{ '.",
"] pX@.F.t.S ! aXpXpX            7 &.&.&.;.$.  @ L.)./.&.O 6 :.&.-.=.*.2         . sXpXaXaXaXaXqX+.).",
"x.p.k.(.].c.c.c.H.p.O O         X       X     o (.(.^.&.    #       X           O Z.Z.V.Z.V.Z.m.H.|.",
").G.H.(.).H.'.~.F.B.O O                     . o E.Q.^.&.        O                 !.^./././.~.F.H.|.",
"P Y Y J Q Q Q E G S   O                   X $.$.(._.^.4.8 =                       /.H.I T R Y Y Q P ",
"g g g f f g d f g d . O                   + !.(.^.!.^.~.L.;                       !.J.a x d g g f d ",
"d d d d d d d f d f . O           X       # !.(.!.!.!.^.!.2       X               ~.c.p h d f f d d ",
"&X&X&X&X&X&X#X=X=X#X$             # >.3.3.3.!.!.!.!.!.~.!.3.3.3.>.=             O (.c.p c %X#X#X&X&X"
};
