/* XPM */
static char *a7874f22f35f4ee8d599d49f9ef2971cBt2Jbb2yihqumeqI[] = {
/* columns rows colors chars-per-pixel */
"50 50 195 2 ",
"   c #020203",
".  c #0A0101",
"X  c #010905",
"o  c #080904",
"O  c #01040B",
"+  c #010A0C",
"@  c #0D0D0D",
"#  c #000411",
"$  c #020B13",
"%  c #010B1A",
"&  c #031215",
"*  c #06161A",
"=  c #04141C",
"-  c #0A1D1C",
";  c #131313",
":  c #181616",
">  c #05221E",
",  c #20221F",
"<  c #051D24",
"1  c #0A1D26",
"2  c #041D2A",
"3  c #0B1E2A",
"4  c #092225",
"5  c #052428",
"6  c #06222C",
"7  c #0A232B",
"8  c #0B2A2D",
"9  c #112325",
"0  c #1B282F",
"q  c #0C2431",
"w  c #062B37",
"e  c #0F2D36",
"r  c #0C2D39",
"t  c #142934",
"y  c #122D3A",
"u  c #05343B",
"i  c #0C343E",
"p  c #053D3E",
"a  c #0B3D3E",
"s  c #123439",
"d  c #19343D",
"f  c #123B3C",
"g  c #272728",
"h  c #2C3E3B",
"j  c #343232",
"k  c #3E3E3E",
"l  c #07403F",
"z  c #09403E",
"x  c #0A3541",
"c  c #053D44",
"v  c #0B3C44",
"b  c #0C374E",
"n  c #033E4C",
"m  c #0A3C4A",
"M  c #153643",
"N  c #133A43",
"B  c #193C46",
"V  c #123B4C",
"C  c #023D53",
"Z  c #0C3B50",
"A  c #024244",
"S  c #0B4145",
"D  c #01424B",
"F  c #0A4149",
"G  c #124245",
"H  c #10454C",
"J  c #004151",
"K  c #23454A",
"L  c #394748",
"P  c #454646",
"I  c #4A4746",
"U  c #494947",
"Y  c #524F4D",
"T  c #454F51",
"R  c #565655",
"E  c #565A55",
"W  c #5A5959",
"Q  c #625E5D",
"!  c #6A5E5C",
"~  c #5A615E",
"^  c #62615F",
"/  c #475866",
"(  c #5F5760",
")  c #5D5C67",
"_  c #655F61",
"`  c #6A5F65",
"'  c #4C6E6D",
"]  c #5E6462",
"[  c #516F6D",
"{  c #547574",
"}  c #626162",
"|  c #67656A",
" . c #69696D",
".. c #716461",
"X. c #666F70",
"o. c #6B7076",
"O. c #877C7E",
"+. c #83847E",
"@. c #4E7F88",
"#. c #847E84",
"$. c #6A858A",
"%. c #6A878B",
"&. c #6A898B",
"*. c #728789",
"=. c #7C8488",
"-. c #7E9FAB",
";. c #7BA2A4",
":. c #78A9AF",
">. c #878785",
",. c #8E8D8D",
"<. c #8C958F",
"1. c #8D9293",
"2. c #949293",
"3. c #949494",
"4. c #9E9B9B",
"5. c #9DA09F",
"6. c #A0A29C",
"7. c #8A9BA6",
"8. c #8BA3AA",
"9. c #9FA7A1",
"0. c #86A8B3",
"q. c #9AB3B5",
"w. c #97B7BE",
"e. c #A5A5A5",
"r. c #ACA6A7",
"t. c #A4A9A6",
"y. c #A6AEAA",
"u. c #AAA8A9",
"i. c #ACACAC",
"p. c #B1A9A4",
"a. c #B3A5AB",
"s. c #B2ABAC",
"d. c #A6B1AB",
"f. c #AAB1AB",
"g. c #B2B1AD",
"h. c #A5ABB3",
"j. c #AEADB3",
"k. c #B2ADB4",
"l. c #B8ACB6",
"z. c #ADB3B3",
"x. c #A2B1BB",
"c. c #AEBDBE",
"v. c #B2B2B2",
"b. c #B3B6B9",
"n. c #BCBCBC",
"m. c #C2ACB4",
"M. c #C0BABB",
"N. c #C5BFC1",
"B. c #CBBDC4",
"V. c #A3C5C6",
"C. c #AAC4C6",
"Z. c #A5C5C8",
"A. c #B5C5C5",
"S. c #BCC2C1",
"D. c #BED8DA",
"F. c #C3C3C3",
"G. c #CAC4C5",
"H. c #CDCCC7",
"J. c #C4C7CB",
"K. c #CCC4C9",
"L. c #C6CBCA",
"P. c #CCCBCC",
"I. c #CDCED0",
"U. c #C5D7D7",
"Y. c #CBD4D5",
"T. c #C5D7DA",
"R. c #CBD7DA",
"E. c #C4D8DB",
"W. c #CDD9DA",
"Q. c #D3D3D3",
"!. c #D0DADB",
"~. c #DEDDDD",
"^. c #E6D6DB",
"/. c #CCDEE0",
"(. c #C4E1E2",
"). c #D6E2E3",
"_. c #E7E7E7",
"`. c #E9E6E6",
"'. c #E2E9E5",
"]. c #E0E8E8",
"[. c #EAEBEA",
"{. c #F5ECEC",
"}. c #F2F2EE",
"|. c #EBEFF0",
" X c #F2EEF3",
".X c #ECF3F3",
"XX c #EDFFFF",
"oX c #F6F5F6",
"OX c #FDF7F5",
"+X c #F6FBF6",
"@X c #FFFDF7",
"#X c #F7F6F9",
"$X c #FFF6FC",
"%X c #F4FEFE",
"&X c #FDFEFE",
/* pixels */
"      4.&X+X&X&X#X&X&X&X@X&X@X@X@X&X@X&X&X&X&X&X&X%X%X&X&X&X%X&X&X&X&X&X&X@X@X&X@X@X&X&X&X%X&XS.y.z.",
"      4.&X&X#X%X&X&X&X&X@X@X@X@X&X@X&X&X$X$X&X&X&X%X%X&X&X&X&X&X&X&X&X&X&X@X@X@X@X&X@X&X&X&X&XS.y.d.",
"j j j 2.P.P.P.P.P.P.P.H.H.H.H.H.P.H.H.H.P.P.P.P.L.L.L.H.P.P.P.P.P.P.P.H.H.H.H.H.H.H.H.P.P.L.J.F.S.n.",
"&X&X&X} .       O       .   .       .   O . O         o . . O   O       .   .               O v.&X&X",
"&X&X&X` .   O O O O   O               O O O O O       . .   O O O O   O             O O O O O k.&X&X",
"&X&X&XQ     O # # # O O O O   O   O # # # # O @ O     . .   O O # # O O O O O   O O O O O O # b.&X&X",
"&X&X&X_ . O = 1 3 3 3 6 4 4 4 1 3 3 6 3 3 7 3 0 =.>.#.. . O $ 1 3 3 2 4 4 4 4 4 > 4 6 3 3 3 1 b.&X&X",
"&X&X&XQ   O 9 M N v v v a p a N v v c n n m N B XX&X&X      = M B m v v v p a a a v v v b M d c.&X&X",
"&X&X&X}   + 4 N m n D D D A A v n D D J D D v M XX+X&X  O   * N m m n D D A A A A D D n b v M C.XX&X",
"&X&X&X] O + 7 v D D D D D A D D n D J D D F p K XX%X@X  O O * N v m D D D D D A D D D n D c N C.XX&X",
"&X&X&X^   X 7 v A D D D D D D n n n n v (.(./.).%X&X&X<.1.1.o.$ % < v c D n D D D D D J n n N C.%X&X",
"&X&X&X^   X 4 v D D J D D n n n D n v B XX%X&X&X&X&X%Xd.f.i.#.O O % M c n n n n D n D J D c v C.%X&X",
"&X&X&X}   O 3 B m n n C n m n D D A c N XX%X&X&X&X&X@Xy.s.i.#.O O = v c D D D D n D J J J n v C.%X&X",
"&X&X&X}   O 7 B m n C n C n D D D D A N XX%X&X&X&X&X&Xg.g.i.#.O O & v A A D D D n J J J D n v Z.XX&X",
"&X&X&X] O + 7 S n D C n n D D D A A p a XX%X&X&X&X&X&Xi.s.a.#.O O & l l A A D n C n J J n n m Z.XX&X",
"&X&X&X] X + 7 v v n D D D D A A A A p a XX&X&X&X&X&X&Xi.s.a.#.  O & z l A A A n m n n n n m N C.%X%X",
"&X&X&X~ X + 4 M v v n c c l c v l z a f XX%X&X&X&X&X&Xy.s.i.#.  O $ f a a p v v v m m v v N d C.%X&X",
"&X&X@X^ o o T *.*.%.%.$.&.&.&.$.&.&.$.*.%X&X&X&X~.~.~.z.f.s.4.| | X.*.$.&.&.&.$.$.%.%.%.K 4 9 c.%X&X",
"&X&X&X! . . 2.$X&X&X%X&X%X@X&X%X%X%X%X%X&X&X&X&Xi.y.d.f.i.k.N.&X&X&X%X%X%X&X%X%XXXXXXXXXL X   f.&X&X",
"&X&XOX! . . 2.&X&X%X&X&X&X&X&X$X&X&X@X&X$X&X&X$Xi.i.d.d.t.i.M.&X&X&X&X&X&X&X&X+X&X.X&X%XP     g.@X&X",
"&X&X&X... o ,.%X%XXX$X&X&XOX$X$X&X$X&X$X&X&X$X&Xf.y.d.d.f.g.G.#X&X&X&X&X&X$X&X&X&X+XoX@XU     g.@X@X",
"&X&X&X^     L [ ' { q.A.A.G.G.K.B.N.J.G.#X&X&X@Xi.d.d.'.'.`.^.G.N.N.F.F.N.B.B.M.>.U Y U ;     g.&X@X",
"&X&X&X} X X 4 a a a ;.q.d.i.p.a.a.u.i.f.@X&X&X$Xs.y.f.%X&X&X`.i.s.i.i.s.s.s.a.s.Q @ .   .     s.&X&X",
"&X&X&X_ O + 4 G p c ;.q.h.l.l.k.v.t.d.y.&X&X@X&Xs.i.f.@X&XOX`.r.v.y.f.y.y.i.s.e.}     . .     g.&X&X",
"&X&X&X| O $ 6 i m S :.w.q.k.a.u.z.9.z.d.&X&X&X&Xs.i.f.&X&X&X[.s.i.f.d.d.d.y.i.s._   O       O z.&X%X",
"&X&X&X_   # 7 V b D D D N 7.k.v.f.&X&X@X&X&X&X&X&X&X&X&X&X&X_.s.i.f.u.e.v.R . . .   O O t f f C.&X&X",
"&X&X&X_   + q V Z J D A A 7.k.k.i.&X&X&X&X&X&X&X&X&X&X&X&X&X_.i.u.i.b.u.v.W . . . + O O t v S V.&X&X",
"&X&X&X`   + q V F D D D p 7.h.i.i.&X&X#X&X&X&X&X&X&X&X&X&X&X[.i.g.u.i.e.g.W   .   + O % r c v V.&X&X",
"&X&X&X_ O $ 7 V Z n D D v x.J.J.H.&X&X&X`._._.`._._.[.&X&X&X[.F.n.G.i.u.i.E   X + - * * w A A V.&X&X",
"&X&X&X_   O 7 b m n D c v T.&X&XoX&X&XoXk.i.y.i.i.i.u.#X&X&X#X&X&X[.z.i.v.R   X > z f a v A A V.&X&X",
"&X&X&X_   + q m n c D v d W.&X&X&X&X&X&Xi.i.j.i.i.i.i.&X&X#X&X&X&X[.i.u.z.R   X - a v v c D A V.%X&X",
"&X&X&X}   O 8 F n n F a d !.&X&X#X&X&X&Xy.i.i.i.i.i.i.&X&X&X&X&X&X[.i.u.i.W   O > a v N v A A V.&X&X",
"&X&X&X}   O 7 n F n $.@.$.).&X&X&XP.P.Q.u.y.z.e.I P P P.I.I.I.H.P.Q.~.~.~.9.| | L < 3 2 r n c Z.%X&X",
"&X&X&X}   + 7 F D c 0.w.h.[.%X&X&Xu.i.k.i.i.u.u.  o   i.i.u.i.u.v.n.&X&X&XQ.k.l.) O # # x c c V.%X&X",
"&X&X&X^   O 5 S c c 8.q.h..X&X&X&Xi.f.e.b.i.y.v.      i.v.i.z.u.v.v.&XoX&XQ.s.a._ O # # r c c V.%X&X",
"&X&X&X^   + 7 A D F 0.h.j._.&X&X&Xi.i.b.i.s.s.e.o     i.i.e.u.v.k.S.&X&X&XQ.p.m.| O O # q c p V.%X&X",
"&X&X&X^   O 8 A A u /.oXoXG.f.v.n.i.i.u.@ @ @ ;       @ @ : k 9.i.i.k.e.v.Q.oX{.O.  O O t a l V.&X&X",
"&X&X&X]   O 5 A A m ).&X&Xv.d.i.u.i.u.n.        o           j i.v.v.i.b.g.Q.OX@X>.    O e a l V.%X&X",
"&X&X&X^   O 5 A A c ).$X@Xn.f.t.v.v.i.v.    o             o j z.y.j.u.i.i.Q.&XOX>.X X + 8 z z V.&X&X",
"&X&X&X}   O 7 A A v U.oX{.5.1.3.3.,.2.,.      + $ & + & + & g 1.3.3.2.,.3.F.}.{.+.X X + t z a V.&X&X",
"&X&X&X}   O 4 A A p 8.j.i.,                 O $ M v c A a G 7 $ O O     o E g.6.Q   O $ e v v C.%X&X",
"&X&X&XQ   O 7 A A l 8.k.l.,   .             O O G v A A c S 8 + O       o ^ 6.p.Q   O $ r v v V.XX&X",
"&X&X&X` O O 7 m A N 7.k.a.g   . .           O + M S c A p G 5 + O o o   o E g.s.Q   # $ w v v V.%X&X",
"&X&X&X| O # 6 S A v / ) W :     + - > - 4 < 4 2 v n n D c S u 6 2 < - > - h ~ } j   O $ q N N C.XX&X",
"&X&X&X|   O 8 S c p = # O O   $ % r B x m m b m C C J C C n C n c m x B s 8 O     X O + y N M C.XX&X",
"&X&X&X] O + 5 S c v & O   O O # % x b c D m C C C C C C C C C D n D b H i q %   o X O + 8 f a V.XX%X",
"&X&X&X]   + 4 f f f $ + O   O O % r N p F m m Z b Z Z b b b m n c v v N B 3 + X   X X + 8 f f V.XX%X",
"n.N.n.G.P.I.Y.T.W.Y.I.P.H.P.J.P.P.R.T.E.E.E.T.T.T.T./.T.R.E.E.D.D.D.E.U.W.Y.P.H.H.H.P.H.Y.U.U.A.S.n.",
"u.u.s.^.&X&X&X%X&X&X&X&X&X$X$XOXOX@X+X%X%X%X+X@X%X@X@X&X&X@X@X%X%X+X+X@X@X@X@X@XOX&X&X$X&X&X&XF.u.a.",
"v.u.s.^.&X&X%X%X&X&X&X&X&X&X&X&X&X&X%X%X%X%X%X&X&X&X%X&X&X%X%X%X%XXX%X%X@X&X&X&X&X&X$X&X$X&X&XF.a.l."
};
