/* XPM */
static char *db7a6ff6d05b459dd5e278c6e95217d9lnpBqN39F2sW8BtA[] = {
/* columns rows colors chars-per-pixel */
"50 50 177 2 ",
"   c None",
".  c #000000",
"X  c #080601",
"o  c #0A0A02",
"O  c #0E0E09",
"+  c #100B02",
"@  c #1A1B00",
"#  c #13130C",
"$  c #111200",
"%  c #191910",
"&  c #261A06",
"*  c #242500",
"=  c #2B2C01",
"-  c #352308",
";  c #383906",
":  c #3C3115",
">  c #3A3A26",
",  c #5D3F0E",
"<  c #494B04",
"1  c #5D400E",
"2  c #505100",
"3  c #565800",
"4  c #5B5C00",
"5  c #5D4517",
"6  c #714C10",
"7  c #5E6000",
"8  c #676800",
"9  c #6C6D00",
"0  c #62640A",
"q  c #666807",
"w  c #706F01",
"e  c #6E7004",
"r  c #727103",
"t  c #7D7405",
"y  c #73750A",
"u  c #7A790D",
"i  c #6A6C1A",
"p  c #7D7D13",
"a  c #7D7E1D",
"s  c #484827",
"d  c #46462D",
"f  c #5C522C",
"g  c #4A4B30",
"h  c #5B5B3B",
"j  c #696B24",
"k  c #77782E",
"l  c #676830",
"z  c #845B15",
"x  c #837606",
"c  c #84790B",
"v  c #8B7909",
"b  c #80770A",
"n  c #947D0B",
"m  c #987E0C",
"M  c #817F15",
"N  c #8E6921",
"B  c #7F811A",
"V  c #9D800D",
"C  c #82841C",
"Z  c #8A861D",
"A  c #838016",
"S  c #998415",
"D  c #A4830F",
"F  c #A58411",
"G  c #AB8611",
"H  c #AA8C1C",
"J  c #A68918",
"K  c #B48914",
"L  c #BC8C16",
"P  c #8A8C26",
"I  c #868720",
"U  c #878830",
"Y  c #888930",
"T  c #949532",
"R  c #9C9A37",
"E  c #9C9D3F",
"W  c #AC8F20",
"Q  c #B39222",
"!  c #BB9726",
"~  c #BD9C2E",
"^  c #A89B34",
"/  c #BC9E32",
"(  c #A9A13E",
")  c #B9A33A",
"_  c #C18E17",
"`  c #C7861D",
"'  c #C38F18",
"]  c #C9881D",
"[  c #C69018",
"{  c #CB921A",
"}  c #D4951C",
"|  c #D9971E",
" . c #DC991E",
".. c #E09A1F",
"X. c #C59B2B",
"o. c #D39922",
"O. c #DC9B22",
"+. c #C89532",
"@. c #E49C21",
"#. c #E99E22",
"$. c #CEA02F",
"%. c #DBA12D",
"&. c #CDA537",
"*. c #DBA634",
"=. c #D8A736",
"-. c #EAA126",
";. c #E5A32C",
":. c #E9A42C",
">. c #E9A730",
",. c #E9A933",
"<. c #E6AC39",
"1. c #E9AD3A",
"2. c #E0A936",
"3. c #969746",
"4. c #8C8D5B",
"5. c #9D9E5B",
"6. c #A3A342",
"7. c #A7A94A",
"8. c #BBAC49",
"9. c #B4A643",
"0. c #AEAF52",
"q. c #AFB15B",
"w. c #B4B65A",
"e. c #B9BA5F",
"r. c #B7B355",
"t. c #999963",
"y. c #A9AA6E",
"u. c #A9AA66",
"i. c #BABB60",
"p. c #B4B16F",
"a. c #B0B172",
"s. c #C1AE4A",
"d. c #C0B04E",
"f. c #DDB144",
"g. c #C6AF5C",
"h. c #C4B553",
"j. c #CCBA59",
"k. c #DCB952",
"l. c #D2BF5E",
"z. c #E8B344",
"x. c #E4B64A",
"c. c #E7B94E",
"v. c #E7B649",
"b. c #E6BD53",
"n. c #E8BD53",
"m. c #C6B260",
"M. c #BFC066",
"N. c #DFC05C",
"B. c #E7C25B",
"V. c #C5C66E",
"C. c #CBC061",
"Z. c #D5C262",
"A. c #D9C464",
"S. c #DDC868",
"D. c #CCCC75",
"F. c #C3C47E",
"G. c #CBC173",
"H. c #D1D27C",
"J. c #DFD47B",
"K. c #E7C561",
"L. c #E4C966",
"P. c #E4CC6D",
"I. c #E2CE71",
"U. c #E5D377",
"Y. c #E5D57A",
"T. c #E5D87F",
"R. c #CACB83",
"E. c #D5D682",
"W. c #D7D884",
"Q. c #DADA86",
"!. c #DBDC8C",
"~. c #E5DA82",
"^. c #E3DE8B",
"/. c #DFE08E",
"(. c #DFE090",
"). c #E3E18E",
"_. c #E4E493",
/* pixels */
". . . . . . . . . . . . . . . . . . . . . O 4.R._.R.g # . . . . . . . . . . . . . . . . . . . . .   ",
". . . . . . . . . . . . . . . . . . . . . O 4.R._.R.g # . . . . . . . . . . . . . . . . . . . . .   ",
". . . . . . . . . . . . . . . . . . . . . O t.R._.R.g # . . . . . . . . . . . . . . . . . . . . .   ",
". . . . . . . . . . . . . . . . . . . . . O 4.R._.R.g O . . . . . . . . . . . . . . . . . . . . .   ",
". . . . . . . . . . . . . . . . . . . . . O 4.R._.R.g # . . . . . . . . . . . . . . . . . . . . .   ",
". . . . . . . . . . . . . . . . . . . . . O 4.R._.R.g # . . . . . . . . . . . . . . . . . . . . .   ",
". . . . . . . . . . . . . . . . . . . . . O 4.R.(.R.g # . . . . . . . . . . . . . . . . . . . . .   ",
". . . . . . . . . . . . . . . . . . . . . # 4.R.(.R.g # . . . . . . . . . . . . . . . . . . . . .   ",
". . . . . . . . . . . . . . . . . . . . . O 4.E._.R.g # . . . . . . . . . . . . . . . . . . . . .   ",
". . . . . . . . . . . . . . . . . . . . . O 4.R.(.R.g # . . . . . . . . . . . . . . . . . . . X .   ",
"O X X X X X X X X X X . . . . . . . . . o # 4.R._.R.g % X . . . . . . . . . X X X X X X X X X X X   ",
"h h f 5 1 , , , , , - + . . . . . . @ * = ; 5.R._.R.l ; = * O . . . . . . % g h h f 5 , , , , , ,   ",
"R.M.m.+.] ] ] ] ] ] 6 % . . . . . . ; 2 4 0 q.W._.E.Y q 4 2 @ X . . . . . > t.F.R.g.+.` ] ] ] ] `   ",
"_.(.P.1.#.#.#.#.#.@.z & . X X X . X ; 7 9 y w.Q._.E.T y 9 3 @ X . X . . . d a.(._.L.<.@.#...#.#.@.  ",
"!.W.A.*.O. .@.:.>.:.N : % % % % % % < 7 9 y w.Q._.E.T y 9 4 * $ o o o o o s y.E.Q.Z.*. ..... . .|   ",
"Y P I M v v ^ Z.U.U.l.a.y.y.y.y.y.y.Y y e y w.E._.E.T y 9 8 3 2 2 2 2 2 2 0 M P P Z v v v v v v v   ",
"e y r w 9 w R D.).).).).).^.)._.!.!.3.p e y w.W._.H.T y e 9 9 8 8 8 8 8 8 8 e e y e e e w w w w 9   ",
"e r e 9 w w R D.).)._._._._._._._._.6.B r y w.W._.W.T u r e 9 9 9 8 9 9 9 9 8 9 9 9 e e w w w w w   ",
"6.6.^ J F F ~ k.K.K.U.^._._._._._._.8.W D G C.T._.T.) J D m r e 9 9 9 9 9 9 9 9 9 t V D D D D D D   ",
"E.E.l.*.O.| @.:.>.>.K.~._._._._._._.k.%.| %.L.)._.).f.%.| ' v r 9 9 9 9 9 9 9 9 9 V _ | |  .| | |   ",
"_._.P.<.#.#.#.#.#.#.n.~._._._._._._.c.:.#.-.K.).).).z.:.-.} v r 9 9 9 8 9 9 8 9 9 V } ..#.#.#.#.@.  ",
"R.H.l.=.} } | @.#.#.n.~._._._._._._.B.>.-.-.B.Y.T.Y.1.:...| v r 9 9 9 9 9 9 9 9 9 A _ } | } } | }   ",
"C C A c v v G | #.#.n.~._._._._._._.B.:.#.#.>.,.1.1.-.-...} v r 9 9 9 9 9 9 9 9 9 r x v x x v x x   ",
"e e e e w w m } #.#.n.~._._._._._._.B.:.#.#.-.-.-.#.#.#.#.} v r 8 9 9 9 9 9 9 9 9 9 9 9 w w 9 w 9   ",
"y e e r r e V } #.#.B.T._._._._.).).n.,.-.-.-.-.-.-.#.#.#.| n t w w 9 9 9 9 9 9 9 9 w w w w w w w   ",
"7.7.( H G G _  .#.#.n.Y._._.Y.K.B.B.B.B.B.B.B.B.B.B.1.-.#...L G G V t 9 9 9 9 9 9 x V G G G G G G   ",
"E.E.A.*.........#.#.B.T._._.K.1.,.:.B.T.~.~.).~.~.Y.z.:.#.#. . ..._ x r 9 9 9 9 9 n '  . . .| | |   ",
"_._.P.<.#.#...-.#.#.n.T._._.B.,.#.#.K.)._._._._.).~.z.:.#...#.....{ v 9 9 9 9 9 9 m { #.@.#.#.#.@.  ",
"D.D.j.$.} }  ...#.#.B.T._.).B.,.#.#.K.~._._.~.T.Y.U.=.o.| } ....#.] v r 9 9 9 9 9 n L } } } } { {   ",
"C C A c x x G } #.#.c.T._._.B.,.#.-.K.~._.).B.z.<.*.J v x V | ..#.{ v e 9 9 9 9 9 w t x x x x x x   ",
"e e 9 9 9 e V } #.#.B.T._._.B.,.#.-.K.~._.).c.>.-.| V r r x { ..#.{ v 9 9 9 9 9 9 9 9 9 w 9 w 9 9   ",
"y e r r r r V } #.#.n.~._._.B.>.#.-.K.^._.).c.>... .n r 9 x { ..#.{ v 9 9 9 9 9 9 9 w w w w w w w   ",
"0.0.( Q K K { ..-.-.n.Y._._.B.,.#.-.K.~._.).c.:.-...m t 9 t { @.-.{ v w 9 9 9 9 9 x D G K K G K K   ",
"E.Q.S.=.........#...B.T._._.B.,.#.#.K.~._.).n.:.#...n w e t [ ....} v 9 9 9 8 9 9 n {  . .O. . .|   ",
"_.).P.<.......-.#.#.n.T._._.B.,.#.-.K.~._.).c.:...| n r 9 x {  .#.{ v r 9 9 9 9 9 V { @.#...#.@.@.  ",
"V.V.h.X.{ {  ...#.-.n.T._._.B.,.#.#.K.)._.).c.:.#.| m r 9 x [ @.#.{ v 9 9 9 8 9 9 v K { { { { { [   ",
"B C A c t x G } #.#.B.T._._.B.,.#.#.K.~._.).b.:.#...n r 9 x [ @.#.{ v 9 9 9 9 9 9 w t x x x x x x   ",
"9 9 9 9 9 9 V } #.#.v.T._._.B.,...-.K.~._.).c.:... .n t 9 x [ @.#.{ v w 9 9 9 9 9 9 9 9 9 9 9 9 9   ",
"e y e r r r V } #.#.B.U._._.B.,.#.#.B.~.).^.x.;...| n r 9 x [ ..#.{ v w 9 9 9 9 9 9 r r w r w w w   ",
"w.w.9.Q K L { ..#.#.B.T._._.B.,.#.-.1.v.c.x.! J D V t 9 9 t { @.#.{ v 9 9 9 9 9 9 x D L K K L K K   ",
"/.W.S.*. . .@.#.#.#.B.U.)._.B.>.#.#.-.:.:.@.F t t r 9 9 9 x { ..#.{ v 9 9 9 9 9 9 n {  .........O.  ",
"/.).P.<.#.#.#.#.#.#.B.T._._.B.,.-.-.#.#.#.@.V t 9 9 9 9 e x [ ....{ v r 9 9 9 9 9 m { #.#...@.#.@.  ",
"M.M.8.X._ _ }  .#.-.B.T._._.P.B.z.z.,.-.#.@.K V n n n n n m K _ ' G t 9 9 9 9 9 9 v K _ ' ' ' ' _   ",
"B B B c t x J } #.#.B.U._._.~.T.~.T.c.:.#.#. .| } }  .} } ' m x x t 9 9 9 9 9 9 9 r t x x t x x x   ",
"e e e 9 e e V } #.#.B.T._._._._._._.b.,.#.#.#.#.#.#.#.#.#.} v w 9 9 9 9 9 9 9 9 9 9 9 9 9 9 9 9 9   ",
"e y r e r r V } -.-.N.J.).).).)./.!.k.;...................} v r 9 9 9 9 9 9 9 8 9 9 e r w r r w w   ",
"e.e.8.! L L &.N.L.P.h.( T T R T T T S V m m m m m m V m m v r 9 9 9 9 9 9 9 9 9 9 v G L L L L L L   ",
"/./.S.*.....z.U.).).0.Z u y r t y y y w w t t w w w t r r r e e 9 9 9 9 9 9 9 9 9 n { @.@...@... .  ",
")./.P.2.-...v.Y././.0.B 9 9 9 9 9 q e 9 9 q e e 9 9 q e 9 9 q e 9 q 9 9 9 9 9 9 e m { #.@.@.@.#.@.  ",
"e.e.8.! L L ~ r.e.e.3.k j j j j j j j j j j j j j j j j j j j j j j j j j i q 9 9 c G L L L L _ L   "
};
