/* XPM */
static char *bd5f7493cacb454ae7e5446152efe5eauPCagvpLNsLhkjGq[] = {
/* columns rows colors chars-per-pixel */
"50 50 231 2 ",
"   c #050505",
".  c #080707",
"X  c #0A0906",
"o  c #0D0C0A",
"O  c #120F04",
"+  c #110F0B",
"@  c #191604",
"#  c #1D1904",
"$  c #15130F",
"%  c #181409",
"&  c #1B1913",
"*  c #231D04",
"=  c #271B0D",
"-  c #231F16",
";  c #2C2607",
":  c #352D03",
">  c #372F04",
",  c #242018",
"<  c #29261A",
"1  c #342816",
"2  c #332F22",
"3  c #353023",
"4  c #3C3525",
"5  c #3C3728",
"6  c #463A05",
"7  c #463717",
"8  c #493111",
"9  c #5B3A17",
"0  c #443C25",
"q  c #534602",
"w  c #5B4B02",
"e  c #584409",
"r  c #524612",
"t  c #624D09",
"y  c #665503",
"u  c #735E02",
"i  c #765D0B",
"p  c #69431B",
"a  c #73481C",
"s  c #6F5718",
"d  c #756002",
"f  c #7A6508",
"g  c #7A6817",
"h  c #51482A",
"j  c #544C35",
"k  c #5D543C",
"l  c #6C502E",
"z  c #64573C",
"x  c #796922",
"c  c #6E623C",
"v  c #746538",
"b  c #625A41",
"n  c #695E43",
"m  c #736748",
"M  c #776A49",
"N  c #83511F",
"B  c #856D02",
"V  c #896E04",
"C  c #8A6A09",
"Z  c #8D7203",
"A  c #8D760D",
"S  c #947605",
"D  c #997807",
"F  c #96780A",
"G  c #9D790A",
"H  c #856914",
"J  c #966D11",
"K  c #89741B",
"L  c #997C14",
"P  c #A47C0D",
"I  c #A87D0F",
"U  c #A87913",
"Y  c #AC7E11",
"T  c #B17E15",
"R  c #895522",
"E  c #895C2C",
"W  c #935B25",
"Q  c #856E25",
"!  c #98612A",
"~  c #897526",
"^  c #927D2C",
"/  c #936938",
"(  c #897837",
")  c #A5672A",
"_  c #B77229",
"`  c #A67131",
"'  c #C2762E",
"]  c #C67C33",
"[  c #8C7248",
"{  c #8B744A",
"}  c #847652",
"|  c #A37742",
" . c #9C8017",
".. c #A78317",
"X. c #AB861B",
"o. c #B48115",
"O. c #B88317",
"+. c #B2851C",
"@. c #BC8419",
"#. c #9E8422",
"$. c #978339",
"%. c #A48927",
"&. c #AB8C23",
"*. c #B48C24",
"=. c #BA8D25",
"-. c #B4912A",
";. c #BC912B",
":. c #AA8F31",
">. c #AB9239",
",. c #B99838",
"<. c #C3861C",
"1. c #C8881F",
"2. c #C68A24",
"3. c #CC8A21",
"4. c #D38C25",
"5. c #D88D27",
"6. c #D58B2A",
"7. c #DB8E29",
"8. c #C7932D",
"9. c #D9912B",
"0. c #C4883B",
"q. c #D58433",
"w. c #D0863A",
"e. c #C59632",
"r. c #C89A37",
"t. c #CC9C3B",
"y. c #D59734",
"u. c #D39C3B",
"i. c #DC9C3C",
"p. c #E3912D",
"a. c #E8932F",
"s. c #E68E35",
"d. c #EA9431",
"f. c #E79838",
"g. c #F29634",
"h. c #F69837",
"j. c #F89837",
"k. c #F59B3B",
"l. c #FD9B3B",
"z. c #D6A03F",
"x. c #9B8948",
"c. c #8D805A",
"v. c #99875A",
"b. c #A9934B",
"n. c #B69348",
"m. c #A48753",
"M. c #A99556",
"N. c #B19B57",
"B. c #BEA043",
"V. c #B8A15A",
"C. c #968860",
"Z. c #9E8C61",
"A. c #A19166",
"S. c #AA9664",
"D. c #AC9A67",
"F. c #A29268",
"G. c #B8A469",
"H. c #BAA773",
"J. c #BFAD7B",
"K. c #C78C49",
"L. c #D29044",
"P. c #C99B5A",
"I. c #D39B55",
"U. c #E99D44",
"Y. c #F99F40",
"T. c #C8A446",
"R. c #DBA143",
"E. c #D5A84B",
"W. c #C9A957",
"Q. c #DAAD54",
"!. c #DFB25B",
"~. c #E3A243",
"^. c #E6A649",
"/. c #EDA64A",
"(. c #F4A447",
"). c #FEA245",
"_. c #FDA64A",
"`. c #F4A94E",
"'. c #FEA94E",
"]. c #E4AD54",
"[. c #EAAC52",
"{. c #EAA958",
"}. c #F2AD54",
"|. c #FFAD54",
" X c #E5B259",
".X c #F3B35B",
"XX c #FEB35B",
"oX c #CDA965",
"OX c #C4AA6D",
"+X c #D0AE68",
"@X c #D6B765",
"#X c #DDBD6B",
"$X c #C9AE72",
"%X c #C0AE7C",
"&X c #CAB57B",
"*X c #C9B37C",
"=X c #D9BD77",
"-X c #F1AF60",
";X c #E9BA67",
":X c #FFB762",
">X c #F4B967",
",X c #FFBA66",
"<X c #FFBD6A",
"1X c #E3BD76",
"2X c #DCC379",
"3X c #E4C16D",
"4X c #F2C16E",
"5X c #FFC16F",
"6X c #EBC371",
"7X c #E3C479",
"8X c #F3C675",
"9X c #FEC473",
"0X c #FAC77A",
"qX c #FECA7C",
"wX c #D1BC84",
"eX c #DBC388",
"rX c #E6C885",
"tX c #EDCC84",
"yX c #FACE83",
"uX c #ECD285",
"iX c #FED286",
"pX c #F3D488",
"aX c #FED58B",
"sX c #FFD98F",
"dX c #EACF90",
"fX c #EBD393",
"gX c #F4DA97",
"hX c #FEDB93",
"jX c #FADE99",
"kX c #FDE19C",
"lX c #FFE7A3",
/* pixels */
"j n } H.A.x.Q i g ( x.D.G.b.$.Q f x $.b.G.D.x.$.g f x x.M.H.M.x.~ i g ~ x.D.G.M.$.K i g ^ m.G.A.M m ",
"k m Z.OXN.b.^ f K $.b.G.G.N.$.K g ~ $.M.&XV.b.$.g g ~ >.G.$XV.b.$.f g $.b.G.OXN.x.~ f ~ $.N.OXD.} M ",
"z [ S.=XoXT.%.A #.:.T.#X2XW.,.%.A %.>.W.3X3XW.,. . .%.B.@X7X+XB.:.A  .:.T.3X3XW.B.%.A #.>.W.1XoXv.{ ",
"c [ P.;XQ.T.:.F X.-.E.3X;XQ.B.X. .&.,.Q.4X;XT.;. . .&.B.!.8X!.T.-. . .-.T.3X3XQ.B.X.F %.,.E.8XoXm.[ ",
"l E K.{.E.y.*.F ..*.t.[.[.R.e.X.S ..=.z..X^.z.-. . .+.e.E..X^.t.+.G ..*.t.[.[.R.e...S ..;.z.}.I.| / ",
"l E 0.U.i.8.*.G X.=.y././.z.8.X. .+.8.i.`.^.y.8.....*.e.~.`.~.y.*. ...=.y.^.`.i.e.X. .X.8.y.(.u.` ! ",
"a R ] U.f.y.;.X.-.e.z./.`.R.r.;.&.;.r.~.`./.z.r.*.&.;.u.^.}.~.u.e.&.*.e.u./.`.~.u.;.X.-.8.y.k.w.) W ",
"a R _ d.f.i.t.B.T.E.]..X.X[.E.T.B.T.E. X.X.X].E.T.B.E.E.}..X[.].T.B.T.E.Q..X.X].Q.T.B.t.u.f.l.q.) W ",
"a R ' s.U.^.Q.+X@X3X6X0X8X7X6X3X2X3X6X8X8X8X6X3X3X@X3X6X8X8X8X6X1X@X3X3X6X8X0X8X6X1X+X!.{.(.).q.) W ",
"p N _ s.U.{.;X=X1X7XrXtXuXrXuXuX2XuXqXpXhXhXgXqXuX8XuXuXhXhXsXpXtXdXuXuXpXiXaXtX7X7X2X1X{.{.U.] ) R ",
"9 a ! ] K.I.oX$X&X&X&XwXeXeXeXfXkXkXkXkXkXkXkXkXlXkXgXkXkXkXkXkXjXjXjXhXsXaXiXtXrX=XwXoXP.K.w.` W a ",
"8 9 N W | | | Z.F.F.F.F.D.J.eXfXkXlXlXlXlXlXlXlXlXlXlXlXlXlXlXlXlXlXlXhXsXiX0X1X$XH.D.Z.| | ) E p 9 ",
"= 1 8 9 p l z z z b b b m C.H.eXgXlXlXlXlXlXlXlXlXlXlXlXlXlXlXlXlXlXjXaXyX<X>XI.n.[ m l l p 9 9 8 1 ",
"% & = 1 = 1 1 2 2 4 4 5 j m C.eXgXlXlXlXkXlXkXkXkXkXlXkXkXkXkXlXjXjXhXyXyX:X{.K.| c 0 0 0 1 1 = = % ",
". . + + $ + + $ & = = ; 4 c v.&XgXkXgXkXhXhXsXsXsXsXsXsXsXsXsXsXhXhXiXyX<X-X{.K.| n 0 0 2 - $ + o X ",
". . . . . . . . X @ # ; r v M.&XgXgXkXqXqXqXqXqXqXqXqXqXqXqXqXqX<XyXyX<X<X,X-X{.| [ n b 5 , + . . . ",
"                O * : q t $.b.2XgXhXqXqX,X,X,X,X:X:X:X,X:X:X:X:X,X:X,X5X9X9X0X1X$XOXA.} b 5 & o .   ",
"                @ ; 6 w g #.V.2XuXpXqX8X|.|.|.'.|.|.|.|.|.|.|.|.|.|.XX<X9XyXiXtXrXwXwXF.M j & o .   ",
"                # : q y g :.T.3XqXqX5XXX_._._.'.'.|.|.|.|.|.|.|.|.|.XX<X9XyXiXaXaXgXdXH.} k - + .   ",
"                # > q u  .&.T. X8X<X:X'.Y.)._.'.XX:X:X,X,X:X:X,X:X:X,X<X9X9XqXaXsXjXjXwXC.k , + .   ",
"        X X X   # > q d S X.e.~..XXX'._.Y._.|.:XqXqXqXqXqXqXqXqXqXqX0X9X5X,X5X9XyXsXjXwX} b - + .   ",
"$ $ $ $ $ $ $ $ ; 6 y f  .X.8.~.(.(.).Y.k.).XX<XqXqXqXsXqXsXqXsXsXhXiX9X<XXXXX<X0XsXgX%XC.b - + .   ",
"2 2 3 3 3 3 3 3 0 h x ~ &.;.y.f.Y.k.k.g.d.(.[..XqXqXqXsXsXhXhXhXhXkXsXqX,X|.'.XX<XaXjXwXC.k - + .   ",
"b b b b b b b b v v x.>.,.r.i.f.l.g.d.p.5.p.~..X4XqXqXqXqXqXqXsXhXkXhXqX,X'._.XX<XsXjX*XC.k - + .   ",
"A.A.F.A.F.A.A.A.F.G.G.OX@XQ.[.(.l.d.p.1.@.2.y.~..X:X:X,X:X,X5XqXaXkXsXqX,X'._.XX9XiXjX%XC.k , o .   ",
"J.J.J.J.J.J.J.J.J.2X2X2X3X3X.X(.l.a.5.<...o.@.y.~.(._.`.(.`..X5XiXhXaXqX,X'._.XX<XiXjXJ.C.k , $ .   ",
"J.J.J.J.J.J.J.J.&X&X2X2X3X3X X_.l.p.3.O. .o.o.1.9.a.f.a.f.f.`..X9XiXqX9XXX'._.XX9XiXgXwXC.k , o .   ",
"A.A.A.A.F.F.F.F.D.G.G.$X@X!.[.(.k.p.1.o.S D P o.1.3.4.4.5.5.i.^.-X8X<X:X|._._.XX<XiXgXwXC.k , o .   ",
"b b b b b b b b m v >.>.,.t.R.f.k.p.3.o.S D D P o.o.o.o.o.O.1.y.^..XXX|._.).).XX9XiXjX*XC.k , o .   ",
"3 3 3 3 3 3 3 5 r h x ~ X.=.y.a.k.p.3.o.P G G P G P o.......<.8.f.(._.).).l.).XX9XiXjX*XC.k , $ .   ",
"$ $ $ $ $ $ $ $ ; 7 t f  .X.3.p.g.a.4.<.P P P P ..P ........@.3.p.k.l.).l.l.).XX<XiXjX%XC.k , o . . ",
"X X           . # > w u S I 1.p.h.d.9.3.<.O.o.o.o.o.o.o.o.O.1.5.p.h.l.l.l.l.).XX9XiXjX*XC.k , $ .   ",
"                # > q d Z o.<.p.j.g.a.p.5.4.4.4.4.4.4.4.4.4.7.p.g.j.l.l.l.l.).XX<XiXjXwX} b - + .   ",
"                @ : q u V L @.5.g.g.g.d.d.a.a.a.a.s.a.a.a.d.g.g.h.l.l.j.l.l.Y.}.>XtXdXH.} b - + .   ",
"                @ ; > w f J T 2.p.s.g.g.j.j.j.j.j.j.h.h.j.j.j.l.l.l.j.j.g.d.f.U.Q.1X*XF.M 0 & o .   ",
"                O ; > q t i J _ 3.5.a.g.j.l.l.l.l.l.l.l.l.l.l.l.l.l.j.g.a.6.6.e.n.m.Z.[ n 5 & o .   ",
"                O @ * : 6 t i J T <.5.a.j.j.l.l.l.l.l.l.l.l.l.l.l.l.h.p.4.<.T ` ^ v z h 5 , + . . . ",
"  X X X X O O X O O * * : 6 t C D T 1.7.g.g.j.j.j.j.j.j.j.j.j.j.j.j.d.5.<.T G H s r 0 2 2 , & $ + o ",
"+ O @ # # # # # * * * * : 6 w u S P @.1.p.p.a.a.a.a.d.a.a.d.d.a.a.d.7.3.O.P V i t 6 > 1 < 1 3 < - & ",
"@ # ; : > > > > : : : : 6 6 t u V G I @.1.4.4.4.4.4.4.4.4.4.4.4.4.4.1.O.Y D V u t e > 7 h j k j 0 4 ",
"* : 6 6 q q w q q w w w t y u B V S G ..o.o.o.O.o.o.o.T o.o.T T o.o.T I G S Z f u y w s v $.c.} n b ",
": 6 t u u u u u u u u u u B B B Z Z F G P P P P P P P P I I I P P P G G D S S V B d d K $.N.J.D.} M ",
"6 6 i C S Z B B B B V S S S C Z Z S D G P P P D D D D P P P P P D S S D D G D S Z Z V  .>.W.2XoXv.{ ",
"6 p H U U P D S S P P T T P P S S S G I Y Y P D S S D P Y Y I P D S S D P I o.I P F Z X.,.E.4X+Xm.| ",
"p a J 1.T O.P S D P o.1.' <.Y P S G I @.1.<.O.I S D P I <.1.<.Y P S D P o.<.1.<.I G S ..8.z.}.E.| / ",
"p N _ 5.1.<.I S P o.<.5.5.1.o.P S P o.1.p.5.<.T D D I O.4.p.3.<.I S P I <.5.5.1.@.P S ..@.y.(.L.` W ",
"a N ' p.5.1.Y S P o.1.a.p.4.<.P S I O.4.d.p.3.O.P D T <.7.g.7.1.o.D P o.1.p.a.5.<.I F I @.5.g.w.) W ",
"a N ' s.7.1.o.D P o.4.d.d.5.<.P D I <.5.g.a.4.O.P D T <.7.g.p.3.o.S P o.4.a.d.7.<.I S I @.5.d.q.) W ",
"a N ' s.7.3.T P P O.4.a.d.5.<.I S I <.7.j.a.4.T P S Y <.p.g.7.4.I D P T 1.a.d.7.<.I S I @.5.g.] ) W ",
"a R ' s.7.' Y S I T 4.a.d.5.<.I S Y T 5.g.a.4.<.P D T <.p.g.p.1.o.D P o.1.d.d.7.<.o.S I @.4.g.6.) W "
};
