/* XPM */
static char *_228956bf38449298917c98ac5750d5dLk6aqvYbdngcZOdw[] = {
/* columns rows colors chars-per-pixel */
"50 50 229 2 ",
"   c #050505",
".  c #080707",
"X  c #0A0906",
"o  c #0D0C0A",
"O  c #120F04",
"+  c #110F0B",
"@  c #191604",
"#  c #1D1904",
"$  c #15130F",
"%  c #181409",
"&  c #1B1913",
"*  c #231D04",
"=  c #271B0D",
"-  c #231F16",
";  c #2C2607",
":  c #352D03",
">  c #372F04",
",  c #242018",
"<  c #29261A",
"1  c #342816",
"2  c #3A3211",
"3  c #332F22",
"4  c #353023",
"5  c #3C3728",
"6  c #463A05",
"7  c #463717",
"8  c #493111",
"9  c #5B3A17",
"0  c #443C25",
"q  c #534602",
"w  c #5B4B02",
"e  c #584409",
"r  c #624D09",
"t  c #665503",
"y  c #735E02",
"u  c #765D0B",
"i  c #69431B",
"p  c #73481C",
"a  c #6F5718",
"s  c #756002",
"d  c #7A6508",
"f  c #7A6817",
"g  c #51482A",
"h  c #544C35",
"j  c #5D543C",
"k  c #6C502E",
"l  c #64573C",
"z  c #796922",
"x  c #6E623C",
"c  c #746538",
"v  c #625A41",
"b  c #695E43",
"n  c #736748",
"m  c #776A49",
"M  c #83511F",
"N  c #856D02",
"B  c #896E04",
"V  c #8A6A09",
"C  c #8D7203",
"Z  c #8D760D",
"A  c #947605",
"S  c #997807",
"D  c #96780A",
"F  c #9D790A",
"G  c #856914",
"H  c #966D11",
"J  c #89741B",
"K  c #997C14",
"L  c #A47C0D",
"P  c #A87D0F",
"I  c #A16B1D",
"U  c #A87913",
"Y  c #AC7E11",
"T  c #B17E15",
"R  c #895522",
"E  c #895C2C",
"W  c #935B25",
"Q  c #856E25",
"!  c #98612A",
"~  c #897526",
"^  c #927D2C",
"/  c #936938",
"(  c #897837",
")  c #A5672A",
"_  c #B77229",
"`  c #A67131",
"'  c #C2762E",
"]  c #C67C33",
"[  c #8C7248",
"{  c #847652",
"}  c #A37742",
"|  c #9C8017",
" . c #A78317",
".. c #AB861B",
"X. c #B48115",
"o. c #B88317",
"O. c #B2851C",
"+. c #BC8419",
"@. c #9E8422",
"#. c #978339",
"$. c #A48927",
"%. c #AB8C23",
"&. c #B48C24",
"*. c #BA8D25",
"=. c #B4912A",
"-. c #BC912B",
";. c #AA8F31",
":. c #AB9239",
">. c #B99838",
",. c #C3861C",
"<. c #C8881F",
"1. c #CC8A21",
"2. c #D38C25",
"3. c #D88D27",
"4. c #D58B2A",
"5. c #DB8E29",
"6. c #C7932D",
"7. c #D9912B",
"8. c #C4883B",
"9. c #D58433",
"0. c #D0863A",
"q. c #C59632",
"w. c #C89A37",
"e. c #CC9C3B",
"r. c #D59734",
"t. c #D39C3B",
"y. c #DC9C3C",
"u. c #E3912D",
"i. c #E8932F",
"p. c #E68E35",
"a. c #EA9431",
"s. c #E79838",
"d. c #F29634",
"f. c #F69837",
"g. c #F89837",
"h. c #F59B3B",
"j. c #FD9B3B",
"k. c #D6A03F",
"l. c #9B8948",
"z. c #8D805A",
"x. c #99875A",
"c. c #A28945",
"v. c #A9934B",
"b. c #B69348",
"n. c #A48753",
"m. c #A99556",
"M. c #B19B57",
"N. c #BEA043",
"B. c #B8A15A",
"V. c #968860",
"C. c #9E8C61",
"Z. c #A19166",
"A. c #AA9664",
"S. c #AC9A67",
"D. c #A29268",
"F. c #B8A469",
"G. c #BAA773",
"H. c #BFAD7B",
"J. c #C78C49",
"K. c #C99B5A",
"L. c #D39B55",
"P. c #E99D44",
"I. c #F99F40",
"U. c #C8A446",
"Y. c #DBA143",
"T. c #D5A84B",
"R. c #C9A957",
"E. c #DAAD54",
"W. c #DFB25B",
"Q. c #E3A243",
"!. c #E6A649",
"~. c #EDA64A",
"^. c #F4A447",
"/. c #FEA245",
"(. c #FDA64A",
"). c #F4A94E",
"_. c #FEA94E",
"`. c #E4AD54",
"'. c #EAAC52",
"]. c #EAA958",
"[. c #F2AD54",
"{. c #FFAD54",
"}. c #E5B259",
"|. c #F3B35B",
" X c #FEB35B",
".X c #CDA965",
"XX c #C4AA6D",
"oX c #D0AE68",
"OX c #D6B765",
"+X c #DDBD6B",
"@X c #C9AE72",
"#X c #C0AE7C",
"$X c #CAB57B",
"%X c #C9B37C",
"&X c #D9BD77",
"*X c #F1AF60",
"=X c #E9BA67",
"-X c #FFB762",
";X c #F4B967",
":X c #FFBA66",
">X c #FFBD6A",
",X c #E3BD76",
"<X c #DCC379",
"1X c #E4C16D",
"2X c #F2C16E",
"3X c #FFC16F",
"4X c #EBC371",
"5X c #E3C479",
"6X c #F3C675",
"7X c #FEC473",
"8X c #FAC77A",
"9X c #FECA7C",
"0X c #D1BC84",
"qX c #DBC388",
"wX c #E6C885",
"eX c #EDCC84",
"rX c #FACE83",
"tX c #ECD285",
"yX c #FED286",
"uX c #F3D488",
"iX c #FED58B",
"pX c #FFD98F",
"aX c #EACF90",
"sX c #EBD393",
"dX c #F4DA97",
"fX c #FEDB93",
"gX c #FADE99",
"hX c #FDE19C",
"jX c #FFE7A3",
/* pixels */
"p p p p i r 6 6 : * # O               $ 4 v D.#X#XD.v 3 $             X % = 8 9 i p p i k k k v j h ",
"R R R M p p r 9 6 ; * O .             $ 4 v D.#X#XZ.j 3 $             X = 1 9 p M M R R E / [ [ n b ",
"_ ] ' ' _ I V u w 6 * O .             $ 4 v D.#X#XZ.v 3 $             O = 8 M ) _ ' ' ' 8.J.K.S.C.{ ",
"p.p.p.p.3.' U V y w : * O             $ 4 v D.#X#XZ.v 3 $             + = i W ' p.g.p.P.P.].,X&XXXS.",
"5.5.5.3.<.,.P C y q : @ O             $ 3 v D.#X#XC.v 3 $             + 1 g / J.P.P.s.y.y.Y.W..XS.m.",
"<.1.<.<.T T U C y w : * O             $ 3 v D.#X#XC.v 3 $             % 1 k ` K.].].s.r.6.w.U.N.v.n.",
"T T T Y P L S B y w : * .             $ 3 v D.#X#XD.v 3 $             $ 1 l l..X].].e.*.*.&.&.$.^ Q ",
"A A A A A A C N y q : @ O             $ 4 v D.#XH.D.v 3 $             $ 3 l V.H.%XOXN.%.F D D Z f s ",
"L P P L L S A B y w : * O O O @ # # # < g m S.H.#XD.x g ; @ # @ @ @ X @ 4 v Z.<X<XOXU.=... .$.| J f ",
"T T T T T P S B y w : * O @ * ; : > > 6 a c S.<X$XF.c g 6 > > > ; * @ & 4 v Z.$X5X1XT.q.*.=.=.;.^ ( ",
"2.2.3.1.,.T L A y w : * * * : 6 q q q w z #.F.<X<XF.#.z t q q q 6 : * - 5 v Z.$XwX4X`.y.t.e.T.U.v.l.",
"i.i.i.i.3.,.Y H y w : * * ; 6 r t y y d ~ :.oX<X<X@X:.@.f s s t w q ; ; 5 v D.<XeX8X|.~.~.'.=X+XF.F.",
"a.a.d.i.3.<.Y A y r 6 : ; 6 r y d A A | %.>.OX5X1XOX>...| C | d f t 0 0 h n S.qXeX8X|.~.~.'.1X1XXXF.",
"3.3.5.3.<.,.L A N t q 6 6 e V A  . . . .*.e.}.=X1XW.e.-...%.%.$.@.( c x n V.H.qXtX6X`.Q.y.k.E.R.M.n.",
",.,.,.T T Y L A N y t r t u H T ,.<.,.<.6.y.'.|.|.'.y.6.6.q.U.N.m.m.x.V.Z.G.qXqXtX1XE.w.q.q.N.N.#.#.",
"P P P L L L A C N s y y V H _ ' 3.u.u.u.s.d.^.^.(.^.h.s.Q.E.W.1X<X<X<X#XqXqXsXdX6X1XU.-... .%.| J z ",
"A A A A A A C C C B B C L T 1.u.a.g.d.d.d.g.g.I.j.j.h.I.(. X6X9XdXdXdXdXdXdXjXdXtX<X>.@. .| | C f f ",
"P L X.P L L A A A A S L Y ,.3.i.d.d.i.i.u.u.u.u.a.a.f.h./.[.2X9XyXpXfXhXhXjXjXhXtX1XU.=..... .| J z ",
",.+.+.+.X.P S S S F P o.<.3.i.d.d.i.u.2.2.<.<.2.3.7.a.h./._. X3X9X9XpXhXhXjXjXdXuX1XT.w.6.-.>.>.#.#.",
"3.3.3.2.<.o.L L F P ,.<.3.i.d.d.d.u.<.,.X.X.X.X.+.2.u.h.I.(._. X3X7XiXhXjXjXjXhXpX4X}.Y.t.T.E.R.m.m.",
"d.d.d.a.u.<.T L L T <.u.d.d.j.d.i.3.,.P L A A L  .+.3.i.h.j./.(.{.3X9XpXhXjXjXhXpX6X|.).).|.4X1XH.F.",
"u.i.i.u.2.,.Y L L X.2.i.g.g.j.g.i.2.o.L S A S P o.1.r.^./.(./.(.{.:X9XpXhXjXjXhXpX6X|.!.Q.'.W.1XB.S.",
"2.2.2.1.<.o.L L L o.2.i.g.j.j.g.i.2.o.L S S  .X.<.r.Q.'.{.{.(.(.{.-X9XpXhXjXjXhXuX4X}.k.y.t.T.R.v.l.",
"o.o.+.o.T P S S L X.2.i.g.j.j.g.i.2.X.L L L X.<.r.Y.|.|.3X X{.(.{.:X9XpXhXjXjXhXuX4XT.w.6.&.>.=.#.#.",
"L F L S F S A A L X.2.i.g.j.j.g.i.2.X.L  . .<.7.Q.).2X9X9X7X X{.{.-X9XpXhXjXjXhX5X1XN.=. .| | K J f ",
"S F S L S S A A L o.2.i.g.j.j.g.i.1.X.L L X.2.i.^. X9X9X9X9X X{.{.-X9XpXhXjXjXhXtX1XN.&. .| | K f d ",
"Y Y T P P L S S L X.2.i.g.j.j.g.i.2.X. .L X.2.s.^.:X9XyXyX9X:X{.{.:X9XpXhXjXjXhXtX1XU.q.O.O.%.$.^ z ",
"<.<.<.,.o.P L S L o.2.i.g.j.j.g.i.2.X.L X.X.3.s.). X9XiXyX9X:X{.{.-X9XpXhXjXjXhXuX4XE.t.q.q.U.>.#.l.",
"u.u.u.5.2.,.P L L X.2.i.g.j.j.g.i.2.X.X. .X.2.a./.3X9XiXiX9X X{.{.:X9XpXhXjXjXhXuX6X}.!.Q.Q.W.OXB.M.",
"d.d.d.a.5.1.T L L X.2.i.g.j.j.g.i.2.X.L  .o.2.a.). X9XiXiX9X3X{.{.-X9XpXhXjXjXhXfX9X X).).|.6X5X#XG.",
"u.5.u.3.1.,.P L | X.2.a.g.j.j.g.d.5.,.,.+.6.y.!. X7XyXiXpX9X X{.{.:X9XpXhXjXjXhXiX6X}.!.Q.!.W.OXB.m.",
"1.1.1.<.,.Y L L X.o.2.u.g.j.j.g.d.u.2.1.2.t.!.|.3X9XpXpXpX9X X{.{.:X9XfXhXjXhXhXuX4X`.t.e.e.U.N.v.l.",
"X.Y X.Y P L S S L T 2.i.g.j.j.j.g.d.p.u.s.Q.|.6XrXpXfXgXpX9X-X{.{.-XrXpXjXjXjXgXtX,XT.-.&.O.=.%.@.z ",
"S S S S A A A A L o.3.a.g.j.j.j.j.g.g.f.^.|.7XyXfXgXhXgXpX9X-X{.{.-X9XpXgXjXjXgXtXOXN.%.| | | Z f y ",
"L L L L L S A A L Y <.5.a.d.g.j.g.j.j.j.(.{.>XrXiXfXfXpXyX7X:X-X-X:X9XyXfXgXhXdXtX1XN.=. . .| | J f ",
"X.X.T X.P P S S S L o.<.3.i.a.g.j.j.j.I.(.{.:X7X9X9X9X9X9X7X>X:X:X>X>X9XrXiXgXdXuX1XT.-.*.=.=.;.#.~ ",
"1.1.1.<.,.X.L S S L P o.,.2.i.d.j.j.j.I./.(.{.-X-X:X:X>X>X>X>X7X7X7X>X>X8XrXpXpXuX4X`.t.w.e.T.U.v.l.",
"i.i.i.u.3.,.P S A A S L X.,.5.a.g.I.j.j.I./.(.(._._._.{. X:X9X9X9X9X:X-X-X>XyXiXyX6X|.~.~.!.=XOXF.S.",
"d.d.i.i.3.,.X.L C B B B K O.4.s.I./././././.(.(.(.(.(._. X>XrXiXyX8X*X].].*XrXyXyX6X|.).).'.4X+XXXF.",
"3.3.3.3.1.,.L S C d y d G I 8.!.). X{. X X X X-X X X X-X>X7XyXiXeX,XL.J.J.L.,XeXuX6X}.Q.y.Y.W.R.M.m.",
",.,.,.,.o.X.F Z N y w r a ~ b.`.;X>X>X>X>X8X>X>X>X>X7X>X9XrXfXdXwX@X} } } } &X,X6X5XE.e.6.q.e.N.c.#.",
"P P  .P  .F S C s t q 6 g c m.oXeXyXiXyXyXyXyXrXiXyXiXiXiXfXgXsXqXG.{ [ / [ F.qX5X1XU.-.O...%.@.~ z ",
"S A A A A C C N s w > 2 0 l C.%XaXdXdXdXgXgXgXgXgXgXgXgXgXgXdXsX0X} n 0 0 n S.%X<XOXN.%.| | D Z d d ",
"P P P P  . ...| J a 7 2 1 h { A.G.H.0X0X0X#X%X%X%X%X%X%X%X%X0XH.D.{ 0 0 0 b C.@X+XW.N.*. . ...@.~ z ",
"o.o.o.,.+.-.>.>.#.z g 1 < 0 v m { V.V.V.V.V.V.V.V.V.V.V.V.V.V.z.{ v 5 3 4 k } K.}.`.t.6.*.-.>.>.} ( ",
"3.3.2.3.r.y.E.R.m.[ g < - < 5 h j j v j j j j v j j j j j j j h h 5 , & 1 k } J.!.~.s.y.r.k.T.R.m.n.",
"d.a.d.d.^.[.2X5XXXx.v 3 & + $ & - , , - - , , , - - - - , , , & & $ $ $ 1 i ) 0.P.I.j.h.^.[.2X<X0XS.",
"9.9.9.9.0.L.oXXXS.{ h < $ . o o o $ o $ o o + + + + + + $ o $ $ o o o $ = 9 E _ ] 9.9.0.0.L..X.XS.D.",
") ) ) ) ` } n.x.{ b 0 - + . . . . . . . . . . . . . . . . . . . . . . o = 8 i R ! ) ) ) ) } } } { { ",
"W W W W ! / [ [ m l 5 & o         .                       .     . . . . & 1 9 p R W W W W } [ { m m "
};
