/* XPM */
static char *b907332282104b7ab303049a1f04aafeZSbQrrWm6aMPzub8[] = {
/* columns rows colors chars-per-pixel */
"50 50 231 2 ",
"   c #050505",
".  c #080707",
"X  c #0A0906",
"o  c #0D0C0A",
"O  c #120F04",
"+  c #110F0B",
"@  c #191604",
"#  c #1D1904",
"$  c #15130F",
"%  c #181409",
"&  c #1B1913",
"*  c #231D04",
"=  c #271B0D",
"-  c #231F16",
";  c #2C2607",
":  c #352D03",
">  c #372F04",
",  c #242018",
"<  c #29261A",
"1  c #342816",
"2  c #3A3211",
"3  c #332F22",
"4  c #353023",
"5  c #3C3525",
"6  c #3C3728",
"7  c #463A05",
"8  c #493111",
"9  c #5B3A17",
"0  c #443C25",
"q  c #534602",
"w  c #5B4B02",
"e  c #524612",
"r  c #624D09",
"t  c #665503",
"y  c #735E02",
"u  c #765D0B",
"i  c #69431B",
"p  c #73481C",
"a  c #6F5718",
"s  c #756002",
"d  c #7A6508",
"f  c #7A6817",
"g  c #51482A",
"h  c #544C35",
"j  c #5D543C",
"k  c #6C502E",
"l  c #64573C",
"z  c #796922",
"x  c #6E623C",
"c  c #746538",
"v  c #625A41",
"b  c #695E43",
"n  c #736748",
"m  c #776A49",
"M  c #83511F",
"N  c #856D02",
"B  c #896E04",
"V  c #8A6A09",
"C  c #8D7203",
"Z  c #8D760D",
"A  c #947605",
"S  c #997807",
"D  c #96780A",
"F  c #9D790A",
"G  c #856914",
"H  c #966D11",
"J  c #89741B",
"K  c #997C14",
"L  c #A47C0D",
"P  c #A87D0F",
"I  c #A16B1D",
"U  c #A87913",
"Y  c #AC7E11",
"T  c #B17E15",
"R  c #895522",
"E  c #895C2C",
"W  c #935B25",
"Q  c #856E25",
"!  c #98612A",
"~  c #897526",
"^  c #927D2C",
"/  c #936938",
"(  c #897837",
")  c #A5672A",
"_  c #B77229",
"`  c #A67131",
"'  c #C2762E",
"]  c #C67C33",
"[  c #8C7248",
"{  c #8B744A",
"}  c #847652",
"|  c #A37742",
" . c #9C8017",
".. c #A78317",
"X. c #AB861B",
"o. c #B48115",
"O. c #B88317",
"+. c #B2851C",
"@. c #BC8419",
"#. c #9E8422",
"$. c #978339",
"%. c #A48927",
"&. c #AB8C23",
"*. c #B48C24",
"=. c #BA8D25",
"-. c #B4912A",
";. c #BC912B",
":. c #AA8F31",
">. c #AB9239",
",. c #B99838",
"<. c #C3861C",
"1. c #C8881F",
"2. c #C68A24",
"3. c #CC8A21",
"4. c #D38C25",
"5. c #D88D27",
"6. c #D58B2A",
"7. c #DB8E29",
"8. c #C7932D",
"9. c #D9912B",
"0. c #C4883B",
"q. c #D58433",
"w. c #D0863A",
"e. c #C59632",
"r. c #C89A37",
"t. c #CC9C3B",
"y. c #D59734",
"u. c #D39C3B",
"i. c #DC9C3C",
"p. c #E3912D",
"a. c #E8932F",
"s. c #E68E35",
"d. c #EA9431",
"f. c #E79838",
"g. c #F29634",
"h. c #F69837",
"j. c #F89837",
"k. c #F59B3B",
"l. c #FD9B3B",
"z. c #D6A03F",
"x. c #9B8948",
"c. c #8D805A",
"v. c #99875A",
"b. c #A28945",
"n. c #A9934B",
"m. c #B69348",
"M. c #A48753",
"N. c #A99556",
"B. c #B19B57",
"V. c #BEA043",
"C. c #B8A15A",
"Z. c #968860",
"A. c #9E8C61",
"S. c #A19166",
"D. c #AA9664",
"F. c #AC9A67",
"G. c #A29268",
"H. c #B8A469",
"J. c #BAA773",
"K. c #BFAD7B",
"L. c #C78C49",
"P. c #D29044",
"I. c #C99B5A",
"U. c #D39B55",
"Y. c #E99D44",
"T. c #F99F40",
"R. c #C8A446",
"E. c #DBA143",
"W. c #D5A84B",
"Q. c #C9A957",
"!. c #DAAD54",
"~. c #DFB25B",
"^. c #E3A243",
"/. c #E6A649",
"(. c #EDA64A",
"). c #F4A447",
"_. c #FEA245",
"`. c #FDA64A",
"'. c #F4A94E",
"]. c #FEA94E",
"[. c #E4AD54",
"{. c #EAAC52",
"}. c #EAA958",
"|. c #F2AD54",
" X c #FFAD54",
".X c #E5B259",
"XX c #F3B35B",
"oX c #FEB35B",
"OX c #CDA965",
"+X c #C4AA6D",
"@X c #D0AE68",
"#X c #D6B765",
"$X c #DDBD6B",
"%X c #C9AE72",
"&X c #C0AE7C",
"*X c #CAB57B",
"=X c #C9B37C",
"-X c #D9BD77",
";X c #F1AF60",
":X c #E9BA67",
">X c #FFB762",
",X c #F4B967",
"<X c #FFBA66",
"1X c #FFBD6A",
"2X c #E3BD76",
"3X c #DCC379",
"4X c #E4C16D",
"5X c #F2C16E",
"6X c #FFC16F",
"7X c #EBC371",
"8X c #E3C479",
"9X c #F3C675",
"0X c #FEC473",
"qX c #FAC77A",
"wX c #FECA7C",
"eX c #D1BC84",
"rX c #DBC388",
"tX c #E6C885",
"yX c #EDCC84",
"uX c #FACE83",
"iX c #ECD285",
"pX c #FED286",
"aX c #F3D488",
"sX c #FED58B",
"dX c #FFD98F",
"fX c #EBD393",
"gX c #F4DA97",
"hX c #FEDB93",
"jX c #FADE99",
"kX c #FDE19C",
"lX c #FFE7A3",
/* pixels */
"n n { [ / ! W W W W p 9 1 = o . .       .           .                     o - 6 j m } [ / / W W W W ",
"m } M.M.| ` ) ) ) ) R p 1 = o . . . . . . . . . . . . . . . . . . . .     $ , 6 b } M.M.| ` ) ) ) ) ",
"G.F.+XOXU.P.w.q.] ] ` E 9 = % . X o + + + + + + o o $ o $ o o $ + + o o . $ < h } F.+XOXU.w.q.6.q.q.",
"H.%X2X5X|.).T.T._.T.] ` i = = o & - - - , , , , , , , , , , , , , , & $ $ & 4 j Z.+X2X1X{.).g.g.g.g.",
"b.B.Q.!.i.y.i.f.(./.L.| k 1 - , 5 g j j j j v j j j j l j j j j j h h 6 < , 3 g { B.Q.!.z.y.5.4.5.5.",
"$.$.>.,.;.2.8.u.}.}.I.| k 0 1 0 v m Z.} Z.Z.Z.} Z.Z.Z.Z.Z.Z.Z.Z.Z.c.m v 6 < < e z $.>.,.=.=.@.O.T O.",
"f ~ #.X.X.X.=.R.}.-XeX| v 0 0 h } G.J.eXeXeXeXeX&X=X=X&X&XeXeX&X=XJ.F.m g 4 1 7 a J  .X.........P P ",
"u d Z D D K &.,.~.rXeXD.b 0 0 b G.eXfXjXgXgXfXgXjXjXjXjXjXgXjXgXkXfX*XA.l 0 1 7 w d N Z A A A A A A ",
"z ~  .&.+.+.;.R.4X8XrXH.[ E b [ J.eXgXjXdXsXsXpXpXpXsXsXpXsXsXpXpXqX%XN.c i 7 7 t s B A L L P P Y Y ",
"$.x.V.R.e.e.u.!.4X9XtX*XN.| | M.%XtXsXdXpXuX1X1X1X1X1X1X1X1X0X1X6X,X~.m.Q a r t y N A L Y @.<.1.<.<.",
"N.C.Q.~.E.i.^.{.7XuXyX2XU.L.L.U.2XuXpXpX0X1X>XoX>XoXoXoXoXoXoXoX X|.^.0.I G u y N B A P @.1.4.5.5.5.",
"F.H.4X5X{.(.'.XXqXaXsXqX;X}.}.XX1XuXpXuX1XoX].].].]._._._._._._._._.f.5.*.H A B B B S o.<.p.a.g.g.g.",
"F.H.4X:X[./.(.XXqXpXsXpX6X>XoX1XuXpXuXuX1X>X X].].].].]._.T.l.l.l.j.d.5.<.o.L S A A F P <.4.p.a.a.a.",
"x.n.R.R.t.r.u.!.7XaXdXsXwX0X6X6X1X1X1X1X1X1X<X<X<X>XoX X]._.l.l.l.l.g.a.5.1.o.P L A F L o.<.1.1.3.3.",
"~ $.:.-.=.=.e.W.4XiXhXhXdXpXwX0X1X1X1X1X0X0XwXuXuX0X1X1X X`.T.l.l.l.h.g.p.5.1.@.P S A F L o.o.o.T O.",
"f J  . . ...*.R.$XiXkXkXkXdXpX0X1XoX>X1X0XpXsXhXdXsXuX1X X_.l.l.l.l.j.j.h.d.7.1.Y L A A S S L L L L ",
"u d  . . ...&.V.3XiXkXlXlXkXdXwX>X X X>XuXsXjXlXjXhXpX0XXX).k.h.j.l.l.l.l.j.a.4.T L A A A A S A A A ",
"~  .&.-.X.*.e.R.4X9XkXlXlXlXdXwX>X X X>XwXsXjXhXdXuX9XXX/.f.p.p.g.j.l.l.l.j.d.4.O.L S S L L o.o.T T ",
"x.x.V.R.r.y.z.[.4XaXkXlXlXkXdXwX<X X X<XwXsXdXsXwX1X;X/.y.8.8.5.a.g.l.l.l.j.a.4.T L F L o.<.1.1.4.3.",
"N.H.#X.X/.i.^.XX9XaXkXlXlXkXdXwX>X X X>XwXsXdXpX0XoX(.i.8.@.@.1.7.d.j.l.l.j.a.4.O.L L P <.3.p.p.p.p.",
"J.K.3X7XXX'.'.XXwXdXkXlXlXkXdXwX>X X X>XuXpXsXwX6X'.f.5.@.o.L O.4.a.j.l.l.j.a.4.o.P L Y 4.7.g.g.g.g.",
"N.H.#X~./.^.^.XX9XhXkXlXlXkXdXwX<X X X>XuXpXpXuXoX`.f.4.o.P L o.4.a.h.l.l.j.d.4.o.P L P <.4.5.p.7.p.",
"$.x.V.V.e.8.t.!.4XhXkXlXlXkXdXwX>X X X<XqXsXpXwXoX`.d.4.O.P ..o.4.a.j.l.l.j.a.4.O.L F L P O.<.<.<.<.",
"z #.&.&.&.*.e.R.4X8XkXlXlXkXdXwX>X X X>XqXpXpXwXoX'.a.4.O.L L o.4.a.j.l.l.j.d.4.o.L F A L P Y T T Y ",
"f f  . . . .X.V.4X8XkXlXlXkXdXwXoX X XoXwXpXwX0XoX'.a.3.o...L o.4.p.j.l.l.j.a.4.T L A A A S S S L L ",
"f J  . . . .*.R.4XiXkXlXlXkXdXwXoX X XoX0XwXwX6X|.^.9.<.o. ...o.4.a.j.l.l.j.a.4.o.L A A S S L L L A ",
"$.$.:.,.=.8.e.W.7XaXkXlXlXkXhXwX6X X]. XoX6X<X.X^.y.<.o.L L L o.4.a.j.l.l.j.a.4.o.L S L P T <.O.T T ",
"x.n.Q.W.u.u.z.[.7XaXkXlXlXlXhXwXoX]._.`. X X'./.y.<.o...S S L o.4.a.j.l.l.j.a.4.o.L L L O.<.3.4.5.4.",
"F.C.4X:X/.^.(.XX9XhXkXlXlXkXkXwX6X]._._.`._.Y.y.<.o.L S S S L @.5.a.j.l.l.g.p.4.o.L L P <.5.p.p.a.a.",
"H.+X3X7XXX'.'.XX9XdXkXlXlXkXdXwX6X X_._.l.l.d.5.@.o.L S S S P <.5.a.h.l.j.d.p.1.T P L o.3.7.a.j.g.j.",
"N.B.Q.W.z.z.^..X7XhXkXlXlXkXhXpX0X6XoX X_.T.g.p.1.<.o.o.o.O.<.1.p.d.g.g.a.5.1.<.P L F P <.1.4.5.5.5.",
"$.$.,.e.8.8.r.W.7XaXkXlXlXkXkXkXwXwX6XoX X_.k.d.p.4.4.3.1.3.4.p.a.g.g.a.5.1.@.P F S A S Y T T <.<.T ",
"z #.#.#...o.-.R.4X9XgXlXlXlXgXgXaXaXwX6X|._.k.h.d.a.p.p.9.p.p.a.g.g.a.7.' Y L S A A A A F L P P Y Y ",
"s d d  . . .&.V.3XiXgXlXgXgXgXgXgXaXaX6XoX).T.l.l.l.T.T.h.k.h.h.j.g.p.3.T S A B B B C C A A A A A A ",
"z  .#.&...X.;.R.4X8XgXfXrXeX*X*X3X3X4X~.W.f.f.f.).).'.).k.a.p.p.p.7.3.T H V y N N N B A F L P P P P ",
"$.$.V.V.e.8.u.W.4X8XfXrXJ.F.Z.v.B.C.V.R.r.8.y.i.{.XXXX{.u.9.1.<.<.' T H u r r t y N A F P o.<.<.<.<.",
"x.B.Q.!.z.i.E..X3XiXrX&Xc.m x x $.$.%.%.X.X.-.t.[.4X$X!.r.=.......L H G 9 7 7 7 t N A P @.1.5.7.5.5.",
"H.J.4X4X{.(.'.XX9XiXrXF.m h 0 e t f Z Z Z  .X.n.#X4X3X4XV.X. .Z A V y t 7 : ; 7 r y A Y 1.7.a.d.d.d.",
"F.H.3X4X{.(.(.XX9XiXeXS.v 6 * ; q w y s s d  .>.@X3X3X#X>.~ d s y t t 7 ; * * : q y A T 1.5.p.d.a.d.",
"x.n.R.W.u.y.z.[.9X8X*XS.v 6 * * > 2 q q q t z $.C.3X3XH.$.z r q q q 7 : * # * : w y C P o.<.1.4.4.5.",
"( ^ :.,.=.=.e.W.4X3X*XG.v 5 & @ ; ; : > > 7 e m H.*X*XH.( g 8 > : : : * @ O * : w y B F L P T T T T ",
"f J  .X...X.-.R.4X3X*XG.l 4 & X O % @ @ # ; g b F.=X*XF.x g ; % # # @ O O O * : w y B A F L P P L L ",
"d f Z D D K &.,.4X3X%XA.l 4 %             $ 4 v S.K.&XG.v 4 $             X # : q y N C A A A A A A ",
"~ ~ %.-.+.*.=.t.!.#XQ.M.l 1 $             $ 4 v S.K.&XG.v 4 $             X * : w y B S L P Y T T T ",
"x.b.V.R.t.8.y.E./.}.U.| k < $             $ 3 v S.K.K.S.v 4 $             O # : q y C L o.<.<.1.3.1.",
"N.N.OX#X/.P.f.f.Y.Y.L.` 9 1 +             $ 3 v S.K.K.S.v 4 $ .           X # : q u C L @.1.5.7.5.5.",
"F.+X2X:X}.Y.Y.s.s.s.' W 9 1 O .           $ 3 v S.K.K.G.v 4 $             O * : q y V U ' 4.s.d.s.s.",
"Z.S.F.I.L.] ] ' ' _ ! M 8 = +             $ 4 v S.K.&XG.v 3 $             X O * 7 r u V I _ ' ' ' ' ",
"b n [ [ E E R R R M i 9 1 % X . . .       $ 3 l S.&X&XS.v 3 $ .           . O * : 7 7 i p M M R R R ",
"h j b l k k p p p i 9 8 = % X .           $ 3 v S.&X&XS.v 3 $ .             X @ ; : 7 7 9 r p p p p "
};
