/* XPM */
static char *_2d2c9bd0923450afc4d18a28e162b3fB6emL7c2Yeb5o3KD[] = {
/* columns rows colors chars-per-pixel */
"50 50 229 2 ",
"   c #050505",
".  c #080707",
"X  c #0A0906",
"o  c #0D0C0A",
"O  c #120F04",
"+  c #110F0B",
"@  c #191604",
"#  c #1D1904",
"$  c #15130F",
"%  c #181409",
"&  c #1B1913",
"*  c #231D04",
"=  c #271B0D",
"-  c #231F16",
";  c #2C2607",
":  c #352D03",
">  c #372F04",
",  c #242018",
"<  c #29261A",
"1  c #342816",
"2  c #3A3211",
"3  c #332F22",
"4  c #353023",
"5  c #3C3728",
"6  c #463A05",
"7  c #493111",
"8  c #5B3A17",
"9  c #443C25",
"0  c #534602",
"q  c #5B4B02",
"w  c #524612",
"e  c #624D09",
"r  c #665503",
"t  c #735E02",
"y  c #765D0B",
"u  c #69431B",
"i  c #73481C",
"p  c #6F5718",
"a  c #756002",
"s  c #7A6508",
"d  c #7A6817",
"f  c #51482A",
"g  c #544C35",
"h  c #5D543C",
"j  c #6C502E",
"k  c #64573C",
"l  c #796922",
"z  c #6E623C",
"x  c #746538",
"c  c #625A41",
"v  c #695E43",
"b  c #736748",
"n  c #776A49",
"m  c #83511F",
"M  c #856D02",
"N  c #896E04",
"B  c #8A6A09",
"V  c #8D7203",
"C  c #8D760D",
"Z  c #947605",
"A  c #997807",
"S  c #96780A",
"D  c #9D790A",
"F  c #856914",
"G  c #966D11",
"H  c #89741B",
"J  c #997C14",
"K  c #A47C0D",
"L  c #A87D0F",
"P  c #A16B1D",
"I  c #A87913",
"U  c #AC7E11",
"Y  c #B17E15",
"T  c #895522",
"R  c #895C2C",
"E  c #935B25",
"W  c #856E25",
"Q  c #98612A",
"!  c #897526",
"~  c #927D2C",
"^  c #936938",
"/  c #897837",
"(  c #A5672A",
")  c #B77229",
"_  c #A67131",
"`  c #C2762E",
"'  c #C67C33",
"]  c #8C7248",
"[  c #8B744A",
"{  c #847652",
"}  c #A37742",
"|  c #9C8017",
" . c #A78317",
".. c #AB861B",
"X. c #B48115",
"o. c #B88317",
"O. c #B2851C",
"+. c #BC8419",
"@. c #9E8422",
"#. c #978339",
"$. c #A48927",
"%. c #AB8C23",
"&. c #B48C24",
"*. c #BA8D25",
"=. c #B4912A",
"-. c #BC912B",
";. c #AA8F31",
":. c #AB9239",
">. c #B99838",
",. c #C3861C",
"<. c #C8881F",
"1. c #C68A24",
"2. c #CC8A21",
"3. c #D38C25",
"4. c #D88D27",
"5. c #D58B2A",
"6. c #DB8E29",
"7. c #C7932D",
"8. c #D9912B",
"9. c #C4883B",
"0. c #D58433",
"q. c #C59632",
"w. c #C89A37",
"e. c #CC9C3B",
"r. c #D59734",
"t. c #D39C3B",
"y. c #DC9C3C",
"u. c #E3912D",
"i. c #E8932F",
"p. c #E68E35",
"a. c #EA9431",
"s. c #E79838",
"d. c #F29634",
"f. c #F69837",
"g. c #F89837",
"h. c #F59B3B",
"j. c #FD9B3B",
"k. c #D6A03F",
"l. c #9B8948",
"z. c #8D805A",
"x. c #99875A",
"c. c #A9934B",
"v. c #B69348",
"b. c #A48753",
"n. c #A99556",
"m. c #B19B57",
"M. c #BEA043",
"N. c #B8A15A",
"B. c #968860",
"V. c #9E8C61",
"C. c #A19166",
"Z. c #AA9664",
"A. c #AC9A67",
"S. c #A29268",
"D. c #B8A469",
"F. c #BAA773",
"G. c #BFAD7B",
"H. c #C78C49",
"J. c #D29044",
"K. c #C99B5A",
"L. c #D39B55",
"P. c #E99D44",
"I. c #F99F40",
"U. c #C8A446",
"Y. c #DBA143",
"T. c #D5A84B",
"R. c #C9A957",
"E. c #DAAD54",
"W. c #DFB25B",
"Q. c #E3A243",
"!. c #E6A649",
"~. c #EDA64A",
"^. c #F4A447",
"/. c #FEA245",
"(. c #FDA64A",
"). c #F4A94E",
"_. c #FEA94E",
"`. c #E4AD54",
"'. c #EAAC52",
"]. c #EAA958",
"[. c #F2AD54",
"{. c #FFAD54",
"}. c #E5B259",
"|. c #F3B35B",
" X c #FEB35B",
".X c #CDA965",
"XX c #C4AA6D",
"oX c #D0AE68",
"OX c #D6B765",
"+X c #DDBD6B",
"@X c #C9AE72",
"#X c #C0AE7C",
"$X c #CAB57B",
"%X c #C9B37C",
"&X c #D9BD77",
"*X c #F1AF60",
"=X c #E9BA67",
"-X c #FFB762",
";X c #F4B967",
":X c #FFBA66",
">X c #FFBD6A",
",X c #E3BD76",
"<X c #DCC379",
"1X c #E4C16D",
"2X c #F2C16E",
"3X c #FFC16F",
"4X c #EBC371",
"5X c #E3C479",
"6X c #F3C675",
"7X c #FEC473",
"8X c #FAC77A",
"9X c #FECA7C",
"0X c #D1BC84",
"qX c #DBC388",
"wX c #E6C885",
"eX c #EDCC84",
"rX c #FACE83",
"tX c #ECD285",
"yX c #FED286",
"uX c #F3D488",
"iX c #FED58B",
"pX c #FFD98F",
"aX c #EACF90",
"sX c #EBD393",
"dX c #F4DA97",
"fX c #FEDB93",
"gX c #FADE99",
"hX c #FDE19C",
"jX c #FFE7A3",
/* pixels */
"E ( 0.d.3.+.L Z L <.6.a.a.2.X.K Z X.<.u.d.u.,.U K A o.3.i.d.4.,.L Z L ,.4.a.i.3.Y K Z U 2.6.p.` T i ",
"E ( 0.d.3.+.L Z L ,.6.a.a.2.X.K Z Y 2.u.d.6.,.X.A K o.3.i.d.4.o.L Z L ,.4.a.a.2.o.K Z Y <.6.p.` T i ",
"E ( 0.a.3.+.L Z L ,.6.d.i.2.o.K A X.2.u.g.u.,.X.A K o.3.i.d.4.,.L A K ,.6.a.a.4.X.K A Y <.6.i.` T i ",
"E ( 0.d.8.+.L Z L ,.4.i.u.<.Y K Z Y <.4.a.4.,.U K A o.2.u.a.3.Y L Z L ,.4.u.i.<.X.K A U ,.4.p.) m u ",
"Q _ r.^.r.+. .Z K o.<.6.4.,.L K A L ,.2.u.2.o.L Z K X.,.3.6.<.o.K Z K o.<.6.4.,.X.K Z K +.2.4.) m u ",
"^ } L.[.k.-. .Z K L +.<.,.X.K A Z K X.,.<.,.X.K Z Z L X.,.2.,.L A Z A Y +.<.<.o.K Z Z K Y +.` P i 8 ",
"] b..X2XE.>...V A K L X.X.K A Z Z A K L X.L K A Z Z K K U Y K K Z Z Z D L U U K A Z Z A K I I G e 6 ",
"{ b.XX5XR.:.| N N Z Z A A Z Z Z Z A A K K K A Z Z Z Z K K K A Z Z N V Z Z A G V V N M M N V B y 6 6 ",
"n { Z.@XN.#.H a s s V V Z A D K K K K K L K K K K K K K K K K Z Z N M M s a t t a a a a a t t r 6 : ",
"c v { x.n l p q r a s V Z D L U X.o.o.o.X.o.X.o.X.X.X.X.X.Y L A Z N s t r e q q q q 0 0 0 0 0 > : ; ",
"4 9 g h f f 7 6 0 r a M A L o.<.3.3.3.3.3.3.3.3.4.3.3.4.3.2.+.L A N t e 0 6 : : : : > > > > > ; * @ ",
"- - 3 3 1 1 ; 1 2 e s V K o.2.6.i.i.i.a.i.i.i.i.i.i.i.i.u.u.<.+.K Z t e 6 : * * * # # # # # # @ O O ",
"o o $ & - < 3 9 w p F J Y 1.4.i.g.g.g.g.g.g.g.g.g.g.g.g.d.a.6.<.Y K M e 6 : * # @ O X X o X X X . . ",
"  . . + < 5 g c x ~ P %.,.4.i.d.j.j.j.j.j.j.j.j.j.j.j.j.j.g.i.4.` Y G y q 6 ; # @ X   X             ",
"  . o & 5 c n V.n.v.9.5.6.i.d.g.j.j.j.j.j.j.j.j.j.j.j.j.j.j.d.i.6.2.Y G y e 0 : ; O                 ",
"  . o & g n S.0XoX].P.s.a.f.f.g.j.j.j.g.g.g.g.g.g.g.g.f.g.g.g.a.a.p.2.Y G y q 6 ; @                 ",
"  . + - h { F.aX8X;X[.I.g.j.j.j.j.g.d.a.i.i.i.i.i.i.i.i.i.i.d.d.d.d.4.+.L M r 0 : #                 ",
"  . $ - h B.0XgXiX3X{./.j.j.j.j.g.d.i.6.3.3.3.3.3.3.3.3.3.4.u.i.d.f.u.<.I Z s 0 > #                 ",
"  . + - h B.#XgXiX3X X/.j.j.j.j.f.i.4.<.o.X.X.X.X.X.X.X.X.,.2.u.i.f.u.<.U Z t 0 > #                 ",
"  . o - h B.%XgXyX3X X/.j.j.j.I.h.u.2.+.L K  .K K  .K K K L ,.3.u.d.u.2.O.S s e 6 ; $ $ $ $ $ & $ $ ",
"  . + , h B.%XgXyX3X X/.j././.(.^.s.7.+.L L L L K K K A A K X.2.u.f.s.r.=.@.| l f f 4 4 4 4 4 4 3 4 ",
"  . + , h B.%XdXyX3X X/./._.{.{.|.!.r.7.o.o.o.o.X.U K A A Z X.2.u.g.s.y.M.M.:.#.x x c c c c c c c c ",
"  . + , h B.%XgXyX3X X(.(.{.:X3X3X|.!.y.4.3.3.3.3.,.o. .A A X.<.u.h.^.'.W.OXD.D.D.A.S.S.S.S.S.S.S.S.",
"  . + , h x.%XgXyX3X X(._. X3X9XyX6X|.~.s.s.s.s.i.6.<.X.K K X.3.i.h.^.|.=X1X<X<X<X#X#X#X#X#X#X#X#X#X",
"  . o , c B.0XdXyX3X X(._.:X9XyXhX9X3X X(.^.(.).^.Q.8.1.O. .,.3.i.h.).|.=X1X<X<X0X0X#X#XG.G.#X#X#X#X",
"  . o , h B.0XdXyX3X X(._.:X9XfXhXpX9X9X:X3X X X X[.Y.r.1.+.<.u.d.j.^.'.}.OXoXD.A.A.V.V.V.C.C.C.C.C.",
"  o + , h B.G.dXyX3X X(._.:X9XfXhXhXpX9X9X9X9X9X9X2X|.!.y.4.u.a.f.h.s.y.e.>.:.l.x b c c c c c c c c ",
"  . o , h z.0XgXpX7X X_.{.:X9XpXhXpXpXiXiXiXiXyX9X9X|.[.h.a.d.g.h.I.s.r.*.$.! d w f 3 3 3 3 3 3 3 3 ",
"  . $ - h B.0XdXpX9X:X X{.3X9XyXpXpXiXiXyXyXiXyX9X9X3X{.^.j.I./.^.(.y.7...| s e w ; $ $ $ $ $ $ $ + ",
"  . + - h B.0XdXfX9X9X:X:X3X3X7X9X9X9X9X9X9X9X9X9X3X X{.(.j.(._.{. X!.q...C a 0 : @                 ",
"  . $ - c B.#XgXhXpXiX9X9X3X3X X3X X X:X X3X X:X X X{.(././._. X3X2XOXU.=.C a 0 > #                 ",
"  . o & h { G.sXsXpXiXiX9X7X3X X{.{.{.{.{. X{.{.{.{.(.(.(.(. X3X6XrX1XU.$.C r 0 : @                 ",
"  . o & 9 { S.0X0XaXwXrXrX>X:X*X{.{.{.{.{.{.{.{.{.{.{.{.{.{.>X9X9XuX<XM.#.d q 6 ; @ X               ",
"  . o & 4 c { S.F.@X,XrX>XrX>X:X-X:X:X-X-X:X-X-X:X-X-X-X>X3X9X9XfXhX<Xm./ r 0 : * O X X         . . ",
"    . + , 9 g v ] } ].*X:X>X>XrX9X9X9X9X9X9X9X9X9X9X9X9X9X9X9XpXdXdX$Xn.x w : * @ O X X         . . ",
"o o $ $ , < 9 g j } H.*X-X>XrXyXpXpXpXpXpXpXpXpXpXpXpXpXpXhXhXhXhXdX$XB.z 5 ; & & & $ @ $ + O O X X ",
"= = = 1 1 9 9 8 R } H.].-X>XyXgXjXhXhXhXhXhXhXjXhXhXhXhXhXhXjXhXjXsX0XC.b g 5 5 4 3 3 3 1 1 ; = % % ",
"1 1 8 u j j k v { b.K.*X>XrXiXgXjXjXjXjXjXjXjXjXjXjXjXjXjXjXjXjXjXjXqXF.z.b c c c c c c j f 8 7 1 = ",
"8 i T ( } } V.Z.F.%XwX>XyXiXgXgXhXjXjXjXjXjXjXjXjXjXjXjXjXjXjXjXjXjXsXqX#XS.S.S.S.S.V.} } Q Q m 8 7 ",
"i T ) ' H.K.@X%XqXwXwXyXiXfXfXgXhXhXhXhXhXhXhXjXhXhXhXhXhXhXhXhXsXdXsXqXqXqX0X$X$X%X@X.XL.J.' Q u 8 ",
"T Q 9.h.!.}.1X<X,XrXuXyXuXuXuXeX5XuXfXfXfX9X9XtXtX5XuXiXpXpXiXuXtXtXtXtXtXeXeXwX5X,X&X=X`.P.0.) m u ",
"E ( 0.I.~.E.W.OX=X,X4X8X8X4X1X+XOX1X4X6X9X4X1X1X1X1X1X4X6X9X4X1X1XOX+X4X6X8X6X4X1X=XOX}.!.P.d.` T i ",
"E ( 0.h.s.t.e.M.U.T.].|.|.`.T.U.M.T.`.[.2X}.T.T.M.M.T.`.}. X'.T.U.M.U.T.`.|.|.`.T.U.>.e.y.s.s.` T i ",
"E ( 0.I.r.7.&. .-.t.P.).~.t.q.%.%.-.k.Q.).Q.k.-.=.=.w.Y.!.[.Y.w.=.%.-.e.Q.).~.y.q.=.%.-.r.p.P.' R i ",
"Q _ J.^.r.1...| &.7.y.~.!.r.*. .| O.w.Q.).Q.7.%.|  .*.r.!.).y.7...| ..7.y.~.~.t.*. .D &.7.y.P.' R i ",
"^ } L.[.k.=...| ..q.Y.'.'.w.&. .| ..w.Q.|.!.q.%.| | -.k.!.|.k.-...|  .7.Y.[.'.e.*. .S %.w.Q.].H.W j ",
"] b..X>XE.>. .| %.e.E.2X=XU.=. .| %.U.W.2X}.M.%.| | -.T.=X2XE.M.%.| ..w.E.=X=XU.>. .S =.U.}.,XK.[ z ",
"] x.XX,XR.:.@.C | M.R.,X+XN.;.| | ;.U.OX1XOXM.@.| | >.R.OX5XR.:.| C @.>.R.+X&XR.;.| G $.U..X0XA.n z ",
"n [ A.XXm.#.H s ! :.m.F.D.c.#.d s @.c.N.G.D.#.#.d H #.c.N.@Xm.#.! s H #.m.D.D.c.#.d s #.c.m.F.V.b h ",
"b { V.D.b./ l s l l.b.D.m.l./ d y / l.n.D.n.#.l d d #.l.A.D.l.#.l s l l.n.D.D.l.#.d t l l.n.D.z.c g "
};
