/* XPM */
static char *e07da9fd2b174fa9a6177e408c9f09980Wik4LccZUT2z3nF[] = {
/* columns rows colors chars-per-pixel */
"50 50 69 1 ",
"  c #161616",
". c #181616",
"X c #1D1616",
"o c #161816",
"O c #161916",
"+ c #161618",
"@ c #161718",
"# c #191619",
"$ c #1A171E",
"% c #1C161E",
"& c gray37",
"* c #5F5F5F",
"= c #606060",
"- c gray39",
"; c #646464",
": c gray40",
"> c #676767",
", c #686868",
"< c #6C6C6C",
"1 c #6D6D6D",
"2 c #747474",
"3 c #797979",
"4 c #7C7C7C",
"5 c gray51",
"6 c #838383",
"7 c gray52",
"8 c gray54",
"9 c #8B8B8B",
"0 c #8D8D8D",
"q c #8F8B90",
"w c #929292",
"e c #959595",
"r c gray64",
"t c #A4A4A4",
"y c gray65",
"u c #A7A7A7",
"i c gray66",
"p c gray67",
"a c #ACADAB",
"s c #ACABAC",
"d c #ADABAC",
"f c #ACACAC",
"g c gray68",
"h c #ACAEAC",
"j c #ACAEAD",
"k c #ADACAE",
"l c #AFAFAF",
"z c #B0AFAF",
"x c gray69",
"c c #B2B2B2",
"v c #B6B6B6",
"b c #B9B9B9",
"n c gray",
"m c #C8C8C8",
"M c #CDCDCD",
"N c gray82",
"B c LightGray",
"V c #D5D5D5",
"C c gray88",
"Z c #E6E6E6",
"A c #E9E9E9",
"S c #F1F4EF",
"D c gray95",
"F c #F3F3F3",
"G c #F2F4F3",
"H c #F4F4F4",
"J c gray98",
"K c gray99",
"L c white",
/* pixels */
"     ##+   o ..X.##%$qFDDo #.   +@@+oooo#+++++ XXX",
"gggggggggggaagaggzgggggghagggaggpggalphpggxggxasgg",
"gggggggggggggggggxxsgxpsaaagggggggggllplggggsggsxk",
"ggggggggggggggggpggzgpvvyvyygggggggghplpgggggvbypp",
"gggggggggggggggggxppp8==:pxxggggggggggggggggpyt<,,",
"gggggggggggggggggxpxg7,,:xggggggggggggggggggggg:>=",
"ggggggggsgggggpggxpgg8:,=xaggggggggggggggpgggpx:>:",
"ggggggJJJJLJJJJJLJB,,,:::ggggggZJJJJJLJJLJJJ<,,,::",
"ggggggLLJLLLLLLLLLV:,::::ggggggAJLLLLLLLLLLL::::::",
"ggggggLLLLLLLLLLLLV::::::gxggggALLLLLLLLLLJL::::::",
"ggggggLLJLLLLLLLLLV:,::::xgxgggAJLLLLLLLLLJL::::::",
"ggggspLLLLLLLLLLLLV::::::ggggggAJLLLLLLLLLLL::::::",
"ggggggLLJLLLLLLLLLV::::::xgggggALLLLLLLLJLLL::::::",
"ggggggLLLLLLLLLLLLV=,::::gxggggAJLLLLLLLLLJL::::::",
"ggggggLLLLLLLLLLLLV,,::::ggxgggALLLLLLLLJLLL::::::",
"ggggggLLLLLLLLLLLLV:,::::gxggggAJLLLLLLLLLLL::::::",
"ggggggLLLLLLLLLLLLV:>::::ggggggAJLLLLLLLLLLL::::::",
"gggggpLLLLLLLLLLLLV=>:::>gxggggALLLLLLLLLLLJ::::::",
"ggggggLLLLLLLLLLLLV,>::::xgggggAJLLLLLLLLLLL::::::",
"ggggggHHDDHHHHFFDDM:>::::ggxgggCDHHHHHHHDDHD::::::",
"pggpsp=:&:,::::::::::::::ggxggg2<:::::::::::::::::",
"agpppg,:&,:::::::::::::::xggxxg3,=::::::::::::::::",
"yggxvy<,:::::::::::::::::gggppy42:::::::::::::::::",
"xg7=&<=:=:,::::::::::::::xgp,,<=&=::::::::::::::::",
"gg7,,:::,=,::::::::::::::ggp:=:,=,::::::::::::::::",
"gg7:,:,:>:::::::::::::::,ggp:::,=::::::::::::::,::",
"ggpyryyyyyyyyyyyyyyypryrygggyyyyyyryyyyyyyyyypepyy",
"ggpggggggggggggggggpppggpgggsggsggggggggggggggpgxp",
"ggggggggggggggggggxgxggxylpggggggggggggggggggxxpgg",
"ggggggggggggggggglagge344pgggggggggggggggggggpp554",
"gggggggggggggggggxigg6<,,ggpggggggggggggggggggg,:=",
"ggggggggggggggggggpxx0,,=xpggggggggggggggggggpx=::",
"ggggggBNNNBNNNNNBVn803:,:ggggggmBBMBBMBBMBMB80w:::",
"ggggggLLLLLLLLLLLLV::::::ggggggALLLLLLLLLLLL::::::",
"ggggagLLJLLLLLLLLLV=:::::xgggggALLLLLLLLLLLJ::::::",
"ggggppLLLLLLLLLLLLV::::::ggxgggAJLLLLLLLLLLL::::::",
"ggggggLLLLLLLLLLLLV:,::::gxggggAJLLLLLLLJLLL::::::",
"ggggggLLLLLLLLLLLLV:::::,ggggggALLLLLLLLLLLL::::::",
"ggggggLLJLLLLLLLLLV:,::::gxxgggAJLLLLLLLLLLJ::::::",
"ggggggLLLLLLLLLLLLV::::::ggggggALLLLLLLLLLLL::::::",
"ggggggLLJLLLLLLLLLV=,::::xxggggALLLLLLLLLLLJ::::::",
"gggggpLLLLLLLLLLLLV::::::ggggggAJLLLLLLLJLLL::::::",
"ggggggLLLLLLLLLLLLV:,::::ggxgggAJLLLLLLLLLLL::::::",
"ggggggLLJLLLLLLLLLV:::::,ggxgggALLLLLLLLLLLJ::::::",
"ggggggLLLLLLLLLLLLV:,::::gxggggAJLLLLLLLLLLL::::::",
"gggpgg4734553545453::::::gxgggg7744545544535::::::",
"pggggp===,,::::::::::::::xggggg3,:::::::::::::::::",
"pppggs<::::::::::::::::::ggxggp3,:::::::::::::::::",
"gge555=:::,::::::::::::::gxg555,::::::::::::::::::",
"pg7,,:=::=,::::::::::::::ggp:::::,::::::::::::::::"
};
